<?xml version="1.0" encoding="UTF-8"?>
<svg version="1.1" viewBox="0 0 1600 1600" width="1280" height="1280" xmlns="http://www.w3.org/2000/svg">
<path transform="translate(0)" d="m0 0h1600v1600h-1600v-1600z" fill="#FBFDFE"/>
<path transform="translate(0)" d="m0 0h1600v1600h-1600v-1600zm732 87.5c-5.13 0.491-10.2 0.589-15.3 0.448-2.94 0.0448-5.41 0.697-8.21 1.53-3.89 0.895-7.87 0.963-11.8 1.16-3.2 0.329-6.16 0.996-9.27 1.82-3.45 0.874-6.94 1.48-10.5 2.09-0.748 0.132-1.5 0.264-2.27 0.401-3.81 0.657-7.56 1.2-11.4 1.47-6.36 0.545-12.5 2.34-18.6 3.95-4.31 1.13-8.63 2.21-13 3.3-1.26 0.321-1.26 0.321-2.55 0.649-0.801 0.202-1.6 0.404-2.43 0.612-0.705 0.179-1.41 0.358-2.14 0.542-1.71 0.384-3.44 0.692-5.17 0.962-3.13 0.553-6.01 1.37-9.04 2.34-4.76 1.5-9.53 2.93-14.3 4.28-17.3 4.88-34.1 10.2-50.8 17-5.16 2.08-10.4 3.9-15.7 5.67-4.3 1.48-8.3 3.23-12.3 5.32-2.91 1.48-5.91 2.75-8.92 4.04-7.18 3.11-14.3 6.32-21.4 9.56-1.01 0.455-2.01 0.91-3.05 1.38-5.19 2.37-10.2 4.86-15.2 7.68-2.62 1.48-5.27 2.91-7.92 4.33-11.3 6.07-22.5 12.2-33.4 19-0.654 0.403-1.31 0.806-1.98 1.22-7.75 4.78-15.4 9.64-23 14.7-2.18 1.46-4.36 2.91-6.55 4.34-9.46 6.19-18.5 12.8-27.5 19.7-0.575 0.438-1.15 0.877-1.74 1.33-6.84 5.21-13.6 10.5-20.4 15.8-3.66 2.89-7.36 5.71-11.2 8.42-2.43 1.97-4.55 4.2-6.75 6.41-1.93 1.8-3.86 3.6-5.81 5.38-0.483 0.443-0.966 0.887-1.46 1.34-2.13 1.95-4.26 3.88-6.45 5.76-6.02 5.14-11.6 10.7-17.2 16.3-1.66 1.66-3.32 3.32-4.99 4.98-5.06 5.06-10.1 10.1-14.7 15.6-1.57 1.8-3.23 3.48-4.94 5.15-3.71 3.66-7.11 7.54-10.5 11.5-0.931 1.08-1.86 2.16-2.79 3.23-13.1 15.2-25.6 30.9-37.3 47.2-1.25 1.71-2.52 3.41-3.82 5.09-19 24.6-34.5 52.1-49 79.5-0.48 0.903-0.959 1.81-1.45 2.74-2.81 5.3-5.59 10.6-8.34 15.9-1.05 2.03-2.11 4.05-3.18 6.07-4.9 9.43-9.14 19.2-13.4 28.9-0.313 0.713-0.626 1.43-0.949 2.16-0.903 2.06-1.8 4.13-2.7 6.19l-1.59 3.66c-0.867 2.11-1.68 4.24-2.4 6.4-1.08 3.25-2.41 6.32-3.8 9.45-3.11 7.13-5.7 14.4-8.19 21.8-0.433 1.27-0.866 2.54-1.3 3.81-1.24 3.64-2.47 7.29-3.7 10.9-0.635 1.87-1.27 3.73-1.91 5.6-0.532 1.57-1.06 3.14-1.59 4.71-0.231 0.679-0.461 1.36-0.699 2.06-1.29 3.85-2.36 7.71-3.32 11.7-0.77 3.15-1.63 6.28-2.48 9.41-1.12 4.15-2.19 8.29-3.06 12.5-0.578 2.76-1.36 5.21-2.44 7.81-1.81 4.56-2.36 9.24-3.04 14.1-0.495 3.38-1.18 6.66-1.96 9.98-0.93 4.04-1.7 8.12-2.5 12.2l-0.535 2.61c-0.347 1.79-0.614 3.59-0.84 5.39-0.468 3.43-1.25 6.76-2.06 10.1-2.09 8.91-3.77 17.7-3.56 26.9l-1 2 0.0625 3c0.0493 3-0.344 5.64-1 8.56-2.58 12.3-2.15 24.9-2.03 37.5l0.0259 3.54c0.0116 1.04 0.0232 2.08 0.0352 3.16-0.0921 3.07-0.46 6.03-0.868 9.07-0.432 4.12-0.371 8.24-0.362 12.4-9.57e-4 0.951-0.00191 1.9-0.0029 2.88-6.77e-4 2 0.00114 4 0.00534 6 0.00537 3.05 3.21e-5 6.1-0.00635 9.15 6.61e-4 1.95 0.00194 3.9 0.00391 5.85-0.00202 0.906-0.00405 1.81-0.00613 2.75 0.0167 4.52 0.296 8.73 1.14 13.2 0.0543 3.37 0.0242 6.71-0.0391 10.1-0.0471 4.11 0.354 7.88 1.04 11.9 0.0186 2.29-0.00382 4.58-0.0625 6.88-0.0377 4-0.0451 7.59 1.06 11.4 0.837 3.09 1.07 4.7 0.938 7.75-0.165 5.6 1.18 10.9 2.41 16.3 0.654 3.64 0.701 6.96 0.656 10.6 0.458 1.64 0.922 3.27 1.44 4.89 0.704 2.64 1.07 5.26 1.45 7.96 1.08 7.2 2.56 14.3 4.12 21.4 0.391 1.8 0.391 1.8 0.789 3.64 0.732 3.37 1.47 6.74 2.21 10.1 0.194 0.884 0.389 1.77 0.589 2.68 4.03 18.3 8.98 36.4 14.7 54.1 0.785 2.46 1.55 4.92 2.32 7.38 10.8 34.8 25.1 68.2 41.4 101 0.785 1.59 0.785 1.59 1.59 3.21 2.74 5.53 5.54 11 8.6 16.4 0.375 0.661 0.751 1.32 1.14 2 1.22 2.15 2.45 4.29 3.68 6.43 0.43 0.752 0.859 1.5 1.3 2.28 8.47 14.8 17 29.7 26.7 43.7 0.83 1.22 1.66 2.45 2.49 3.67 5.63 8.28 11.4 16.4 17.5 24.3 1.54 2.06 3.08 4.12 4.62 6.19 5.88 7.83 11.9 15.5 18.2 22.9 3.66 4.29 7.15 8.69 10.6 13.2 0.772 0.857 0.772 0.857 1.56 1.73h2c0.263 0.586 0.527 1.17 0.798 1.77 1.26 2.32 2.61 3.93 4.43 5.83 0.958 1.01 0.958 1.01 1.94 2.04 0.667 0.694 1.33 1.39 2.02 2.1 3.77 3.95 7.53 7.89 11.1 12 4.33 5 9.02 9.65 13.7 14.3 1.53 1.53 3.06 3.06 4.58 4.59 7.44 7.47 7.44 7.47 15.4 14.3h2c0.33 0.99 0.66 1.98 1 3 1.38 1.48 1.38 1.48 3.19 2.94 0.723 0.612 1.45 1.22 2.19 1.86 1.3 1.09 1.3 1.09 2.62 2.21 1.05 0.911 2.1 1.82 3.15 2.74 7.54 6.55 15.2 12.8 23.1 18.9 1.66 1.29 3.32 2.58 4.98 3.87 7.75 6.04 15.7 11.8 23.7 17.4l2.4 1.73c8.2 5.85 16.7 11.2 25.2 16.7 2.15 1.39 4.29 2.79 6.44 4.19 5.89 3.84 11.8 7.49 18 10.8 2.23 1.2 4.43 2.42 6.63 3.67 0.663 0.378 1.33 0.755 2.01 1.14 1.26 0.721 2.52 1.44 3.78 2.17 7.35 4.18 15 7.85 22.5 11.6 0.666 0.33 1.33 0.66 2.02 1 17.3 8.56 34.6 16.9 52.5 24 2.33 0.93 4.66 1.88 6.98 2.83 6.44 2.62 12.9 5 19.5 7.17 1.64 0.548 3.27 1.1 4.91 1.65 30.3 10.3 30.3 10.3 61.4 17.5 3.14 0.735 5.89 1.65 8.89 2.8 5.99 2.24 12 3.52 18.3 4.7l3.16 0.617c5.14 0.993 10.3 1.9 15.4 2.72 3.93 0.638 7.73 1.47 11.6 2.5 6.2 1.57 12.3 2.46 18.7 3.15 1.13 0.125 2.26 0.25 3.42 0.378 11.1 1.18 22.2 1.81 33.4 2.2 1.62 0.0588 1.62 0.0588 3.27 0.119 45 1.59 90.2 1.62 135-0.119 0.956-0.0348 1.91-0.0697 2.9-0.106 10.6-0.403 21-1.25 31.5-2.53 0.999-0.122 2-0.243 3.03-0.368 6.53-0.847 12.6-2.22 18.8-4.21 3.62-1.08 7.24-1.85 10.9-2.54 0.658-0.121 1.32-0.243 2-0.368 3.69-0.658 7.39-1.23 11.1-1.75 10.4-1.43 10.4-1.43 20.3-4.7 6.29-2.69 12.7-3.92 19.4-5.19 14.6-2.58 14.6-2.58 28.4-7.94 3.48-1.66 6.74-2.47 10.5-3.31 7.22-1.69 14-4.06 20.9-6.75 3.2-1.23 6.4-2.33 9.67-3.37 7.07-2.32 13.9-5.19 20.7-8.08 2.3-0.969 4.61-1.92 6.92-2.87 22.3-9.26 44.2-19.9 65.2-31.8 3.77-2.12 7.59-4.05 11.5-5.94 10.4-5.13 20.1-11.1 29.4-18 4.47-3.24 9.2-6.1 13.9-9.03 9.38-5.9 18.4-12.2 27.3-18.7 2.88-2.09 5.81-4.11 8.74-6.13 12.5-8.68 23.7-18.6 34.7-29.1 4.46-4.24 9.02-8.32 13.7-12.3l2.36-2.04c1.23-1.06 2.46-2.13 3.69-3.19 2.4-2.18 4.67-4.47 6.96-6.77 1.39-1.38 2.79-2.76 4.18-4.14 1.57-1.56 3.13-3.11 4.7-4.67l2.36-2.33c4.2-4.18 8.2-8.44 12.1-12.9 2.92-3.29 6.07-6.35 9.21-9.43 4.38-4.34 8.69-8.66 12.7-13.4 1.53-1.76 3.1-3.43 4.73-5.11 7.82-8.11 14.4-16.6 20.7-26 2.13-3.13 4.32-6.22 6.52-9.3 0.403-0.566 0.806-1.13 1.22-1.72 2.85-3.98 5.83-7.86 8.84-11.7 4.33-5.56 8.12-11.3 11.8-17.3 0.855-1.35 1.71-2.69 2.57-4.03 21.6-33.9 40.8-68.6 56.4-106 0.978-2.29 1.99-4.56 3.02-6.83 2.11-4.73 3.97-9.54 5.79-14.4 0.519-1.38 0.519-1.38 1.05-2.78 0.71-1.88 1.42-3.77 2.13-5.66 0.913-2.42 1.84-4.84 2.77-7.26 7.44-19.5 13.6-39.6 18.6-59.9 0.742-2.94 1.52-5.87 2.3-8.8 4.26-16.3 7.51-32.6 10.4-49.1 0.666-3.85 1.38-7.69 2.15-11.5 2.12-10.6 3.5-21.2 4.53-32 0.119-1.23 0.239-2.46 0.362-3.73 2.14-24.1 2.16-48.2 2.14-72.4-2.67e-4 -0.79-5.34e-4 -1.58-8.09e-4 -2.39-0.0183-43.1-0.143-86.9-9.65-129-0.811-3.72-1.52-7.46-2.24-11.2-9.48-48.8-23.5-96.7-43.3-142-0.277-0.639-0.554-1.28-0.84-1.94-3.28-7.47-6.76-14.9-10.2-22.2-0.738-1.57-1.47-3.15-2.21-4.73-4.52-9.72-9.3-19.2-14.7-28.5-1.85-3.22-3.52-6.52-5.16-9.86-0.99-1.98-2.05-3.91-3.18-5.82-0.595-1.01-0.595-1.01-1.2-2.04-0.619-1.04-0.619-1.04-1.25-2.1-0.662-1.12-0.662-1.12-1.34-2.26-6.15-10.4-12.5-20.6-19-30.7-0.867-1.37-0.867-1.37-1.75-2.77-5.91-9.3-12.3-18.2-18.8-27.1-0.899-1.22-0.899-1.22-1.82-2.46-11.6-15.7-23.4-31.2-36.8-45.5-2.73-2.93-5.38-5.93-8.01-8.96-0.877-1.01-0.877-1.01-1.77-2.04l-1.64-1.9c-7.43-8.45-15.4-16.3-23.4-24.3-2.52-2.51-5.03-5.03-7.54-7.54-1.62-1.62-3.24-3.24-4.86-4.85-0.74-0.742-1.48-1.48-2.24-2.25-4.61-4.59-9.38-8.94-14.3-13.2-1.55-1.39-3.09-2.79-4.62-4.19-10.1-9.11-20.4-17.8-31.4-25.8-1.24-0.932-2.47-1.87-3.71-2.8-20.4-15.4-41.4-30-63.3-43.2-1.15-0.709-2.3-1.42-3.45-2.13-9.17-5.63-18.6-10.7-28.2-15.6-2.27-1.18-4.52-2.39-6.77-3.61-22.4-12.1-45.9-23.1-69.8-31.9-2.54-0.95-5.07-1.95-7.6-2.94-24.6-9.42-49.7-17.4-75.2-23.8-1.73-0.434-3.45-0.869-5.18-1.3-3.43-0.863-6.86-1.72-10.3-2.57-2.66-0.659-5.31-1.34-7.96-2.04-6.57-1.74-13.1-2.82-19.8-3.66-2.74-0.43-2.74-0.43-3.74-1.43-3.63-0.834-7.33-1.38-11-2-1.94-0.342-1.94-0.342-3.93-0.691-4.68-0.816-9.38-1.57-14.1-2.31l-2.38-0.379c-55.4-8.61-115-9.65-171-4.1z"/>
<path transform="translate(436,489)" d="m0 0c11.1 8.72 15.9 21.5 18 35 0.202 0.865 0.405 1.73 0.613 2.62 3.93 17.2 1.92 35.5-5.61 51.4-7.49 11.5-15.8 19.6-28.8 24.4-10.3 2.13-21.9-0.27-30.7-5.95-2.29-1.72-4.43-3.52-6.56-5.43-0.628-0.523-1.26-1.05-1.9-1.59-9.9-8.88-15.1-24.7-16.3-37.8-0.0946-2.43-0.12-4.84-0.104-7.27 0.00491-0.87 0.00983-1.74 0.0149-2.64 0.282-15.7 4-34 14.4-46.2 16.5-14.4 38.1-20.8 56.9-6.5z"/>
<path transform="translate(357 996)" d="m0 0c0.701 0.0932 1.4 0.186 2.13 0.282 5.34 0.793 9.45 1.97 13.9 5.03 1.12 0.69 1.12 0.69 2.26 1.39 7.19 4.88 10.6 11.4 13.4 19.5 0.984 5.96 0.808 13.1-1.89 18.5-1.49 1.97-3.05 3.74-4.77 5.52-3.64 4.1-3.64 4.1-6 9 0.592 0.25 1.18 0.5 1.79 0.758 7.75 4.36 14.1 16.3 17 24.4 1.16 5.8-0.977 10.9-3.8 15.8-7.91 11.2-19.9 18.8-33.3 21.5-12.4 1.79-26.1-1.45-36.5-8.32-8.14-6.28-14.7-12.9-17.2-23.1-0.57-7.33 1.73-14.1 6-20 2.88-2.66 5.76-5.1 8.87-7.48 2.51-2.42 2.51-2.42 2.16-6.06-1.04-3.47-1.89-5.05-4.41-7.58-5.72-6.08-8.04-11.1-7.9-19.4 0.87-7.73 5.47-14.5 11.3-19.4 11.5-7.65 23-12.2 37-10.3z"/>
<path transform="translate(825 1272)" d="m0 0c6.21 4.41 11.5 9.76 13.1 17.4 0.284 2.71 0.491 5.3 0.379 8.02-0.33 0.33-0.66 0.66-1 1-8.25 0-12.7-2.97-19-8-6.38-5.01-11.3-8.56-19.9-8.32-6.62 0.975-11.9 4.23-16.1 9.32-0.419 0.491-0.838 0.982-1.27 1.49-5.59 7.08-8.06 15.6-8.73 24.5 1.48-0.581 2.96-1.16 4.44-1.75 0.927-0.364 1.85-0.727 2.81-1.1 2.67-1.06 2.67-1.06 4.79-2.23 8.52-4.51 20.7-6.14 30.2-4.23 10 3.51 18.9 9.89 23.8 19.5 1.68 3.87 2.97 7.71 3.94 11.8 0.309 1.24 0.309 1.24 0.625 2.5 1.3 8.7-0.233 16.2-5.08 23.4-8.31 11.2-16.6 18.3-30.5 21.1-12.8 1.09-24-0.986-34.4-8.82-14.8-12.6-19.8-29.2-21.9-48-0.808-16.9 5.46-34.8 15.3-48.2 0.577-0.866 1.15-1.73 1.75-2.62 15.1-16 38.4-18.3 56.8-6.8z"/>
<path transform="translate(306 749)" d="m0 0c8.55 7.4 14.3 21.3 15.5 32.3 0.12 1.94 0.12 1.94 0.241 3.91 0.0439 0.696 0.0879 1.39 0.133 2.11 0.0902 1.46 0.177 2.91 0.259 4.37 0.128 2.23 0.27 4.47 0.414 6.7 0.663 10.9 0.663 10.9-0.475 13.2-0.192 1.87-0.379 3.75-0.562 5.62-1.79 11.9-8.12 24.5-17.4 32.4h-2c-0.495 1.49-0.495 1.49-1 3-3.82 2.09-7.92 3.51-12 5-0.931 0.349-1.86 0.699-2.82 1.06-9.59 3.14-19.2 1.29-28.2-3.06-7.99-4.1-15.9-8.8-19.4-17.4-0.988-3.18-1.87-6.35-2.62-9.6 1.32-1.32 2.64-2.64 4-4 6.22 1.3 9.94 3.96 14.8 7.94 5.75 4.49 10.8 8.18 18.2 9.06 0.705 0.0851 1.41 0.17 2.14 0.258 6.19 0.354 10.9-1.52 15.5-5.57 0.784-0.887 1.57-1.77 2.38-2.69 0.797-0.886 1.59-1.77 2.41-2.68 2.82-3.41 4.61-7.02 6.34-11.1 0.304-0.699 0.607-1.4 0.92-2.12 2.21-5.32 3.43-10.3 3.33-16.1h-3c-0.206 0.557-0.413 1.11-0.625 1.69-4.48 7.54-15.4 13.4-23.6 15.8-11.6 1.53-21.2-3.31-30.5-10.1-6.27-4.88-11.2-9.52-13.4-17.4-0.218-0.666-0.436-1.33-0.66-2.02-3.42-11.5-0.287-21.8 5.16-32.2 6.74-10.5 17.7-15.6 29.4-18.6 14.7-1.2 25 1.43 37 10.1z"/>
<path transform="translate(1263 998)" d="m0 0c2.8 2.04 3.57 4.14 4.86 7.36 0.378 3.02 0.327 6 0.258 9.05-0.00992 1.28-0.00992 1.28-0.0201 2.58-0.0233 2.71-0.067 5.41-0.113 8.12-0.0351 2.72-0.0658 5.44-0.0913 8.16-0.017 1.69-0.0401 3.38-0.07 5.07-0.17 4.14-0.17 4.14 1.04 8.02-0.0912 2.27-0.248 4.54-0.438 6.81-0.55 7.07-0.67 14.1-0.562 21.2 2.51 1.26 4.51 1.22 7.31 1.38 7.63 0.67 7.63 0.67 10.7 3.62 1.22 3.52 1.32 5.24-0.125 8.69-3.38 4.17-6.46 5.4-11.7 6-1.39 0.116-2.79 0.224-4.19 0.312-0.0735 0.926-0.0735 0.926-0.148 1.87-0.24 2.72-0.532 5.42-0.852 8.13-0.0993 0.846-0.199 1.69-0.301 2.56-0.664 4.08-0.987 5.88-4.32 8.5-4.84 1.34-9.19 2.11-13.8-0.375-3.31-3.58-2.88-8.26-3.12-12.9-0.0432-0.75-0.0864-1.5-0.131-2.27-0.106-1.85-0.207-3.69-0.307-5.54-11.9-0.965-23.7-1.08-35.7-0.875-15.8 0.154-15.8 0.154-22.3-3.12-0.297-5.84 0.372-10.1 2.88-15.4 0.311-0.684 0.622-1.37 0.942-2.07 6.31-13.5 14.6-26 22.8-38.4 1.31-1.99 2.61-3.99 3.91-5.99 23.8-36.4 23.8-36.4 43.6-30.4z"/>
<path transform="translate(1030 1175)" d="m0 0c1.29 0.0131 2.59 0.0263 3.92 0.0398 3.47 0.0389 6.94 0.102 10.4 0.17 2.22 0.0411 4.44 0.0733 6.65 0.103 3.69 0.0513 7.38 0.12 11.1 0.203 1.42 0.0306 2.84 0.0569 4.26 0.0789 1.98 0.0331 3.97 0.0876 5.95 0.143 1.13 0.0262 2.27 0.0524 3.44 0.0793 2.8 0.432 2.8 0.432 4.69 1.72 1.62 2.5 1.19 4.8 0.923 7.68-1.23 3.07-3.09 4.21-5.81 6.04-3.07 0.59-3.07 0.59-6.57 0.715-0.966 0.0417-0.966 0.0417-1.95 0.0842-2.16 0.0871-4.32 0.145-6.48 0.201-1.59 0.0528-3.19 0.106-4.78 0.161-5.05 0.163-10.1 0.284-15.2 0.402-1.76 0.0433-3.52 0.087-5.29 0.131-4.26 0.105-8.52 0.207-12.8 0.307 0.00902 1.25 0.018 2.51 0.0273 3.8 0.0255 3.55-0.356 6.83-1.03 10.3-0.771 4.03-1.1 7.76-1 11.9 1.54 0.0548 3.08 0.0932 4.62 0.125 1.29 0.0348 1.29 0.0348 2.6 0.0703 2.81-0.068 2.81-0.068 5.44-1.18 4.71-1.43 9.19-1.38 14.1-1.39 0.938-0.0245 1.88-0.049 2.84-0.0742 9.35-0.0387 17.6 2.63 24.5 9.15 7.47 9.09 11.4 20.5 10.7 32.2-1.79 12.6-9.65 22.3-19.6 29.9-10.5 6.92-23.6 7.74-35.8 5.47-7.46-2.02-12.8-5.11-18.5-10.3-0.733-0.655-1.47-1.31-2.22-1.98-4.28-4.01-7.25-7.3-8.78-13-0.087-3.61 0.321-6.79 2.12-10 2.26-1.2 4.21-1.78 6.78-1.68 6.3 2.03 11.3 8.52 15.3 13.6 3.6 4.3 7.15 5.86 12.6 6.4 8.77 0.276 14.7-1.06 21.5-6.59 5.06-4.78 5.71-8.81 5.94-15.6-0.16-8.1-2.67-13.3-8.31-19.1-6.79-3.43-15.5-3.06-22.7-0.812-6.15 2.4-12.1 5.26-17.5 9.06-3.43 2.14-5.77 2.75-9.81 2.75-2.69-1.61-2.69-1.61-5-4-0.559-2.79-0.559-2.79-0.438-6.19 0.0196-0.637 0.0392-1.27 0.0593-1.93 0.0889-2.3 0.23-4.59 0.378-6.88 0.0841-1.4 0.0841-1.4 0.17-2.82 0.703-11.2 1.71-22.4 3.33-33.5 0.118-0.823 0.237-1.65 0.359-2.49 1.25-7.98 1.25-7.98 3.14-10.2 6.98-3.69 13.8-3.38 21.5-3.25z"/>
<path transform="translate(1346,747)" d="m0 0c5.98 5.32 10.3 12.5 11.5 20.4 0.391 8.38-1.21 14.1-6.52 20.6-2.08 2.27-2.08 2.27-4 4h-2c-0.66 2.31-1.32 4.62-2 7 1.48 0.495 1.48 0.495 3 1v2c0.536 0.227 1.07 0.454 1.62 0.688 6.38 3.52 9.95 7.49 12.4 14.3 1.86 6.58 2.97 12.6 0 19-7.56 13.2-17.7 19.9-32.2 23.8-11.1 2.47-22.4 1.04-32.4-4.77-8.78-5.62-17.3-12.8-20.4-23-0.312-3.31-0.312-3.31 0-6 2-2 2-2 4.21-2.27 1.29 0.00773 1.29 0.00773 2.61 0.0156 1.28-0.00773 1.28-0.00773 2.58-0.0156 4.19 0.427 6.73 1.2 9.45 4.51 0.547 0.869 1.09 1.74 1.66 2.63 3.66 5.5 7.07 9.13 13.5 11.1 10.3 1.94 17.3 1.22 26.3-3.88 3.68-2.91 5.33-4.87 6.07-9.57 0.404-6.44-0.767-10.5-4.67-15.7-4.39-4.8-8.72-6.7-15.2-7.09-2.6-0.109-5.21-0.213-7.81-0.312-4.59-0.587-7.92-2.05-11.5-4.91-1.49-1.96-2.11-3.09-2.19-5.56 1.71-2.63 3.23-3.81 6.3-4.55 2.86-0.409 5.71-0.729 8.58-1.01 7.18-0.731 12.8-1.48 18.9-5.62 3.52-5.11 3.74-11.8 3.25-17.8-1.5-3.21-3.28-5.73-6-8-9.02-3.01-16.8-2.42-25.3 1.48-4.28 2.45-7.51 4.82-9.84 9.21-1.61 2.37-2.43 3.19-5.18 4.09-4.11 0.542-6.85 0.559-10.7-1.09-1.94-1.69-1.94-1.69-2.94-3.69 2.07-9.27 7.96-15.4 15.5-20.8 16.7-10.4 37-11.8 53.5-0.211z"/>
<path transform="translate(837 224)" d="m0 0c10.3 6.04 16.2 15.4 19.2 26.9 1.35 8.66 0.142 16-4.77 23.2-0.598 0.797-1.2 1.59-1.81 2.41-0.99 1.32-0.99 1.32-2 2.66-3.43 4.4-7.02 8.42-11 12.3-0.79 0.802-1.58 1.6-2.39 2.43-4.48 4.53-9.02 8.9-13.9 13.1-3.32 2.89-6.33 6.09-9.37 9.27-2.38 2.25-2.38 2.25-5.38 3.25v3h51c1.76 4.39 2.25 6.27 2.19 10.8-0.00645 0.964-0.0129 1.93-0.0195 2.92-0.168 2.33-0.168 2.33-1.17 3.33-2.45 0.106-4.87 0.147-7.32 0.145-0.766 0.00336-1.53 0.00672-2.32 0.0102-2.54 0.00954-5.09 0.0115-7.63 0.0125-1.76 0.00321-3.53 0.00657-5.29 0.0101-3.7 6e-3 -7.4 0.00784-11.1 0.00725-4.75-1.02e-4 -9.49 0.0135-14.2 0.0308-3.64 0.0111-7.28 0.0131-10.9 0.0126-1.75 0.00118-3.5 0.00562-5.25 0.0133-2.45 0.00977-4.89 0.00693-7.34 8.95e-4 -1.09 0.00843-1.09 0.00843-2.2 0.017-3.69-0.0232-5.22-0.157-8.38-2.26-0.677-4.86 0.511-7.55 3.19-11.6 0.592-0.909 1.18-1.82 1.79-2.75 2.14-2.84 4.5-5.18 7.02-7.68 1.64-1.79 3.27-3.59 4.89-5.39 4.3-4.73 8.74-9.3 13.3-13.8 0.618-0.612 1.24-1.22 1.87-1.86 2.54-2.52 5.09-5.03 7.64-7.54 14.6-12.9 14.6-12.9 20.6-30.2-0.0692-6.38-1.46-9.78-5.25-14.9-4.34-3.34-8.54-4.85-14-5.31-6.52 1.28-11.2 4.64-16 9h-2c-0.33 0.99-0.66 1.98-1 3-2.44 2.69-2.44 2.69-5 5h-2c-0.33 0.99-0.66 1.98-1 3-3.06 1.69-3.06 1.69-6 3-5.88-3.88-5.88-3.88-7-5-1.09-6.26 1.25-10.1 4.75-15.2 6.51-8.06 14.6-13.2 24.2-16.8 0.94-0.364 1.88-0.727 2.85-1.1 9.51-2.71 19.7-1.73 28.5 2.57z"/>
<path transform="translate(1274 490)" d="m0 0c7.3 6.58 11.6 16.3 13 26 0.099 4.37-1.04 7.69-2.94 11.6-0.37 0.767-0.74 1.53-1.12 2.32-3.67 6.76-8.69 12.1-14 17.6-1.94 2.03-3.78 4.1-5.55 6.27-1.87 2.24-3.62 4.08-5.85 5.93-4.34 3.7-8.52 7.57-12.7 11.5-3.68 3.42-7.43 6.73-11.3 9.92-1.67 1.69-2.54 3.33-3.49 5.5 1.48-0.99 1.48-0.99 3-2 2.51-0.241 4.91-0.373 7.42-0.414 0.737-0.0194 1.47-0.0387 2.23-0.0587 2.36-0.0597 4.73-0.106 7.09-0.152 1.55-0.0382 3.09-0.0773 4.64-0.117 3.8-0.0941 7.6-0.165 11.4-0.222 1.47-0.0236 2.94-0.0512 4.41-0.0828 2.06-0.0438 4.13-0.0742 6.19-0.101 1.77-0.0297 1.77-0.0297 3.58-0.0601 2.98 0.205 4.61 0.488 7.03 2.21 1.76 4.09 2.09 6.47 1.31 10.9-0.433 1.03-0.866 2.06-1.31 3.12-3.99 1.33-7.81 1.1-12 1.06-0.879-0.00379-1.76-0.00757-2.66-0.0115-2.81-0.0122-5.62-0.0309-8.43-0.051-3.7-0.0265-7.4-0.0465-11.1-0.0625-0.855-0.0083-1.71-0.0166-2.59-0.0251-4.26-0.145-4.26-0.145-8.25 1.09-4.2 0.125-8.39-0.0117-12.6-0.132-2.08-0.0547-4.16-0.0836-6.23-0.112-7.03-0.161-12.5-0.374-18.2-4.76-0.835-5.43 1.07-8.32 4.09-12.6 2.74-3.48 5.67-6.76 8.68-10 1.99-2.16 3.89-4.36 5.79-6.6 2.25-2.58 4.56-4.88 7.16-7.1 22.4-17.7 22.4-17.7 35.8-41.4 0.414-6.34-1.09-10.4-4.7-15.5-4.49-4.43-9.99-4.23-16-4.21-7.46 0.231-12.7 2.39-18 7.59-2 2.23-3.9 4.52-5.79 6.84-1.63 1.72-3.3 3.35-5 5-0.495 0.495-0.495 0.495-1 1-3.54 0.393-5.36 0.453-8.31-1.62-2.22-3.13-2.83-4.49-2.69-8.38 2.66-5.83 6.18-10.8 11-15 0.477-0.468 0.954-0.936 1.45-1.42 16.2-15.2 38.7-16.3 56.5-3.12z"/>
<path transform="translate(421 500)" d="m0 0c7.1 5.65 12.3 15.7 13.5 24.6 0.166 1.6 0.318 3.2 0.457 4.8 0.118 1.27 0.118 1.27 0.239 2.56 0.541 6.09 0.965 12.1 0.573 18.2-0.0799 1.26-0.16 2.53-0.242 3.83-0.808 9.76-2.7 18.4-10.1 25.4-6.44 5.14-10.6 6.47-19 6.4-6.37-1.02-9.83-4.63-13.7-9.59-2.04-3.22-3.61-6.45-5-10-0.413-1.03-0.825-2.06-1.25-3.12-1.83-7-1.93-14.1-1.94-21.2-0.0122-0.882-0.0245-1.76-0.0371-2.67-0.0273-12.4 2.9-24.4 11-34.1 7.18-6.51 16.3-7.33 25.4-5.03z" fill="#FBFDFE"/>
<path transform="translate(539 1175)" d="m0 0c4.26-0.0504 8.52-0.0871 12.8-0.111 1.62-0.00948 3.24-0.0214 4.86-0.0359 2.27-0.0177 4.53-0.0216 6.8-0.0214 1.29-0.00411 2.58-0.00822 3.9-0.0125 3.24 0.233 5.47 0.841 8.38 2.24 0.798 18.3-10.3 35-18.4 50.8-2.01 3.93-3.97 7.89-5.93 11.8-3.01 6.04-6.15 12-9.33 18-2.22 4.16-4.36 8.35-6.43 12.6-2.85 5.83-5.81 11.6-9.12 17.1-0.918 1.56-0.918 1.56-1.86 3.15-2.21 2.8-3.51 3.66-6.96 4.48-2.35-0.172-2.35-0.172-4.62-0.75-1.13-0.271-1.13-0.271-2.29-0.547-2.09-0.703-2.09-0.703-5.09-2.7 0.367-6.8 3.21-11.6 6.54-17.4 7.59-13.7 14.7-27.6 21.7-41.5 1.76-3.52 3.54-7.02 5.32-10.5 1.39-2.74 2.77-5.48 4.14-8.23 0.652-1.3 1.31-2.59 1.97-3.89 0.913-1.79 1.81-3.59 2.7-5.39 0.512-1.02 1.02-2.03 1.55-3.08 1.18-3.17 1.3-5.56 1.09-8.91-3.95-0.0247-7.9-0.0429-11.9-0.0549-2.01-0.00751-4.01-0.0202-6.02-0.033-1.26-0.00322-2.51-0.00645-3.81-0.00977-1.16-0.00524-2.33-0.0105-3.52-0.0159-2.75-0.08-2.75-0.08-4.8 1.11-3.77 0.269-7.54 0.232-11.3 0.25-1.05 0.0206-2.09 0.0412-3.17 0.0625-1.01 0.00516-2.03 0.0103-3.07 0.0156-0.925 0.00935-1.85 0.0187-2.8 0.0283-3.19-0.43-5.07-1.45-7.65-3.36-0.629-2.34-0.629-2.34-0.562-4.94-0.00129-0.855-0.00258-1.71-0.00391-2.59 0.761-3.32 1.88-4.38 4.57-6.47 3.26-0.546 3.26-0.546 7.18-0.609 1.07-0.025 1.07-0.025 2.17-0.0505 2.36-0.0496 4.72-0.0705 7.08-0.0901 1.64-0.0265 3.29-0.0543 4.93-0.0833 4.33-0.0696 8.65-0.111 13-0.145 2.65-0.0221 5.29-0.052 7.94-0.0842z"/>
<path transform="translate(1068,294)" d="m0 0c3.82 8.75 3.4 17.5 3.33 26.8-0.00306 1.73-0.00493 3.45-0.00568 5.18-0.00458 3.6-0.0189 7.2-0.0412 10.8-0.0284 4.61-0.0392 9.23-0.0437 13.8-0.00416 3.56-0.014 7.12-0.0259 10.7-0.00569 1.7-0.0105 3.4-0.0143 5.11-0.00688 2.37-0.0205 4.75-0.0363 7.12-0.00112 0.701-0.00224 1.4-0.00339 2.12-0.0288 3.28-0.239 6.2-1.16 9.35-0.101 1.99-0.155 3.98-0.176 5.97-0.0238 1.15-0.0477 2.29-0.0723 3.47-0.043 2.41-0.0742 4.83-0.0938 7.24-0.0277 1.15-0.0554 2.29-0.084 3.47-0.0146 1.05-0.0292 2.1-0.0442 3.18-0.53 2.66-0.53 2.66-2.4 4.5-2.69 1.46-4.58 1.56-7.63 1.53-1.41 0.0116-1.41 0.0116-2.84 0.0234-3.17-0.475-4.38-1.16-6.66-3.4-0.488-2.58-0.488-2.58-0.47-5.71-0.00289-1.18-0.00577-2.36-0.00874-3.57 0.0175-1.28 0.0349-2.57 0.0529-3.89 0.0046-1.35 0.00752-2.69 0.00887-4.04 0.00884-3.59 0.0429-7.18 0.0824-10.8 0.0293-2.95 0.0439-5.89 0.0581-8.84 0.0968-19.7 0.335-39.5 1.28-59.2-3.31 1.96-6.37 3.98-9.38 6.38-0.78 0.608-1.56 1.22-2.36 1.84-1.38 1.09-2.76 2.19-4.12 3.31-4.34 3.42-7.58 4.38-13.1 4.47-0.99-0.66-1.98-1.32-3-2-0.582-3.66-0.216-5.59 1.5-8.88 6.15-8.2 13.9-13.7 22.5-19.1 0.628-0.424 1.26-0.848 1.9-1.29 6.78-4.36 15.1-5.95 23.1-5.71z"/>
<path transform="translate(752 223)" d="m0 0c1.32-0.0213 1.32-0.0213 2.66-0.043 2.28 0.23 2.28 0.23 4.28 2.23 0.317 2.78 0.51 5.46 0.615 8.25 0.0375 0.845 0.0751 1.69 0.114 2.56 0.41 10.1 0.436 20.2 0.44 30.3 0.00322 2.05 0.00659 4.1 0.0101 6.15 0.00593 4.25 0.00785 8.5 0.00725 12.7-1.03e-4 5.44 0.0137 10.9 0.0308 16.3 0.0111 4.21 0.0131 8.42 0.0126 12.6 0.00118 2.01 0.0056 4.02 0.0133 6.03 0.00977 2.79 0.00694 5.58 8.95e-4 8.38 0.00562 0.825 0.0112 1.65 0.017 2.5-0.0406 7.36-0.0406 7.36-2.26 10.2-4.95 1.19-9.93 1.26-15 1-2.82-2.82-2.46-5.66-2.62-9.45-0.0377-0.757-0.0753-1.51-0.114-2.29-0.393-8.66-0.393-17.3-0.365-26 0.00187-1.72 0.00329-3.45 0.00429-5.17 0.00377-4.48 0.0135-8.95 0.0247-13.4 0.0103-4.59 0.0148-9.19 0.0198-13.8 0.0106-8.97 0.0276-17.9 0.0488-26.9-0.99-0.33-1.98-0.66-3-1-2.22 1.39-2.22 1.39-4.5 3.44-3.71 3.09-7.44 6.11-11.3 9-0.873 0.659-1.75 1.32-2.64 2-2.63 1.62-4.47 2.33-7.54 2.57-2.38-1.56-2.38-1.56-4-4-0.125-5.49 2.6-9.88 6-14 10.1-9.55 24.6-20.1 39.1-20.2z"/>
<path transform="translate(541,295)" d="m0 0c3.18 5.02 3.39 9.15 3 15-0.495 1.49-0.495 1.49-1 3-0.084 1.35-0.113 2.71-0.107 4.07 0.00152 0.826 0.00303 1.65 0.00459 2.5 0.00674 0.902 0.0135 1.8 0.0204 2.73 0.00307 0.953 0.00613 1.91 0.00929 2.89 0.00716 2.07 0.0165 4.14 0.0279 6.21 0.0174 3.27 0.0277 6.55 0.0359 9.82 0.0245 9.31 0.0601 18.6 0.105 27.9 0.0267 5.69 0.0438 11.4 0.0549 17.1 0.00623 2.17 0.0163 4.35 0.0301 6.52 0.0191 3.03 0.0261 6.06 0.0303 9.09 0.00876 0.904 0.0175 1.81 0.0266 2.74-0.00984 6.21-0.00984 6.21-2.24 8.43-2.99 1.01-5.86 1.19-9 1.25-0.846 0.0258-1.69 0.0516-2.56 0.0781-3.06-0.412-4.24-1.17-6.44-3.33-0.488-2.61-0.488-2.61-0.47-5.8-0.00439-1.8-0.00439-1.8-0.00887-3.63 0.0175-1.31 0.035-2.61 0.0531-3.96 0.00494-1.38 0.00823-2.75 0.00996-4.13 0.00963-3.65 0.044-7.3 0.0829-11 0.0266-2.88 0.0357-5.76 0.0437-8.63 0.057-20 0.565-39.9 1.29-59.9-3.9 2.29-7.12 4.75-10.4 7.79-1.55 1.21-1.55 1.21-3.55 1.21-0.33 0.99-0.66 1.98-1 3-4.09 4-8.22 5.89-14 6-2.44-0.938-2.44-0.938-4-2-0.508-5.34 0.712-7.82 4-12 9.82-10.7 21.3-20.5 35.8-23.9 3.74-0.144 6.65-0.233 10.2 0.875z"/>
<path transform="translate(340 483)" d="m0 0c1.16-0.0387 1.16-0.0387 2.34-0.0781 2.68 0.408 3.49 1.24 5.16 3.33 1.15 2.29 1.16 3.68 1.22 6.23 0.0232 0.874 0.0463 1.75 0.0702 2.65 0.0198 0.946 0.0397 1.89 0.0602 2.87 0.0232 0.969 0.0463 1.94 0.0702 2.94 0.0477 2.05 0.0929 4.1 0.136 6.15 0.0671 3.15 0.145 6.29 0.224 9.44 0.0449 1.99 0.0892 3.98 0.133 5.97 0.0239 0.946 0.0478 1.89 0.0724 2.87 0.0169 0.874 0.0337 1.75 0.0511 2.65 0.017 0.771 0.0339 1.54 0.0514 2.34-0.089 1.9-0.089 1.9-1.09 3.9-0.0814 2.08-0.0966 4.17-0.0818 6.25 0.00653 1.31 0.0131 2.63 0.0198 3.98 0.00861 1.06 0.00861 1.06 0.0174 2.14 0.0174 2.2 0.0277 4.4 0.0359 6.61 0.0245 6.26 0.0601 12.5 0.105 18.8 0.0267 3.83 0.0438 7.66 0.0549 11.5 0.00622 1.46 0.0162 2.92 0.0301 4.38 0.0192 2.04 0.025 4.08 0.0303 6.12 0.00746 1.16 0.0149 2.32 0.0226 3.52-0.234 2.73-0.234 2.73-2.23 4.73-2.61 0.336-2.61 0.336-5.75 0.375-1.03 0.0284-2.05 0.0567-3.11 0.0859-4.02-0.59-6.03-1.86-9.14-4.46-0.728-2.97-0.728-2.97-0.697-6.48-0.00372-0.965-0.00372-0.965-0.00752-1.95-9.19e-4 -2.13 0.041-4.26 0.0835-6.39 0.00868-1.5 0.0148-3.01 0.0185-4.51 0.0173-3.98 0.0713-7.95 0.132-11.9 0.0535-3.95 0.0691-7.9 0.0894-11.8 0.109-17.3 0.527-34.6 1.38-51.9-4.12 1.55-6.85 3.35-10.2 6.25-13.3 11.1-13.3 11.1-19.9 11.1-1.42-0.186-1.42-0.186-2.88-0.375-1.41-2.81-1.24-4.88-1-8 6.42-13.1 24.1-22.5 37-28 2.76-0.92 4.63-1.19 7.5-1.25z"/>
<path transform="translate(606,292)" d="m0 0c2.72 2.48 3.9 4.34 4.13 8.13 0.00168 0.828 0.00335 1.66 0.00508 2.51 0.00426 0.952 0.00853 1.9 0.0129 2.88-4.53e-4 1.04-9.06e-4 2.09-0.00137 3.16 0.00336 1.1 0.00672 2.2 0.0102 3.33 0.00952 3.64 0.0115 7.29 0.0125 10.9 0.00321 2.52 0.00658 5.05 0.0101 7.57 0.00599 5.29 0.00788 10.6 0.00725 15.9-6.02e-4 6.12 0.00997 12.2 0.0257 18.4 0.0146 5.89 0.0182 11.8 0.0176 17.7 0.00118 2.51 0.00563 5.02 0.0133 7.52 0.00974 3.5 0.00694 7 8.95e-4 10.5 0.00562 1.04 0.0112 2.09 0.017 3.17-0.00419 0.949-0.00839 1.9-0.0127 2.88 5.45e-4 0.828 0.00109 1.66 0.00165 2.51-0.249 2-0.249 2-2.25 4-6.09 1.28-11.1 0.895-17-1-1.9-1.9-1.12-4.69-1.12-7.22 0.00539-1.34 0.00539-1.34 0.0109-2.71-1.46e-4 -0.936-2.92e-4 -1.87-4.43e-4 -2.84 7e-4 -3.11 0.00849-6.22 0.0163-9.33 0.00186-2.15 0.00329-4.3 0.00429-6.45 0.00383-5.67 0.0137-11.3 0.0247-17 0.0102-5.78 0.0148-11.6 0.0198-17.4 0.0107-11.4 0.0278-22.7 0.0488-34.1-3.06 1.48-5.54 3.11-8.19 5.25-14.2 11.2-14.2 11.2-22.8 10.8-0.66-0.66-1.32-1.32-2-2 0.134-5.64 2.4-9.82 6-14 12.4-11.7 26.7-18.5 43-23z"/>
<path transform="translate(290,758)" d="m0 0c6.76 5.99 10.5 13.1 11.2 22.1 0.188 4.95-0.00436 7.82-3.16 11.9-2.54 1.97-5.24 3.61-8 5.25-0.724 0.446-1.45 0.892-2.2 1.35-5.44 3.31-9.25 4.84-15.8 4.4-7.04-2.18-12.4-6.62-16.9-12.4-3.3-7.52-3.67-13.3-0.812-21.2 3.58-7.16 7.32-9.71 14.7-12.4 6.64-1.99 14.7-1.8 21 1z" fill="#FBFDFE"/>
<path transform="translate(814,1327)" d="m0 0c5.35 4.79 8.47 10.3 9.28 17.5 0.231 6.36-0.554 11.5-4.98 16.4-6.3 5.93-11.8 8.23-20.4 8.5-7.61-0.239-12.1-2.85-17.3-8.29-3.58-4.64-5.2-9.82-6.24-15.5 1.19-6.76 4.53-13.4 10.1-17.6 8.64-5.18 20.8-6.36 29.6-0.938z" fill="#FBFDFE"/>
<path transform="translate(366 1067)" d="m0 0c4.41 4.3 7.27 9.2 7.56 15.4-0.662 5.96-2.21 10.1-6.62 14.2-5.26 4.13-10.8 6.36-17.6 6.03-10-1.26-16.4-4.52-22.9-12.3-2.1-3.15-2.54-6.31-2.34-10 0.839-3.05 2.21-5.41 4-8 0.491-0.73 0.982-1.46 1.49-2.21 4.05-4.98 8.1-6.63 14.4-7.41 8.02-0.737 15.4-0.829 22 4.25z" fill="#FBFDFE"/>
<path transform="translate(1248,1014)" d="m0 0c0.66 0.33 1.32 0.66 2 1-0.119 6.46-0.244 12.9-0.372 19.4-0.043 2.19-0.0847 4.38-0.125 6.57-0.613 33.2-0.613 33.2-2.5 35.1-2.74 0.16-5.45 0.259-8.19 0.316-0.82 0.0208-1.64 0.0416-2.48 0.063-2.63 0.0656-5.26 0.124-7.89 0.183-1.78 0.0432-3.56 0.0868-5.33 0.131-4.37 0.107-8.74 0.209-13.1 0.307-1-3-1-3-0.0312-5.35 3.14-5.58 6.49-10.8 10.2-16 2.62-3.81 4.86-7.82 7.12-11.9 1.7-2.79 3.63-5.22 5.68-7.76 0.536-1.15 1.07-2.31 1.62-3.5 3.12-6.58 8.23-13.4 13.4-18.5z" fill="#FBFDFE"/>
<path transform="translate(363 1014)" d="m0 0c3.53 2.78 5.17 5.26 6.06 9.62 0.627 6.3-0.0157 12.3-3 18-2.56 2-2.56 2-5 3-0.99 0.495-0.99 0.495-2 1-3.24 0.292-6.5 0.278-9.75 0.312-0.895 0.029-1.79 0.058-2.71 0.0879-5.71 0.0547-9.08-0.489-13.5-4.4-3.19-3.61-5.63-7.34-6.69-12.1 1.53-6.53 5.26-11.1 10.7-14.9 9.28-4.16 16.7-4.95 25.9-0.625z" fill="#FBFDFE"/>
<path transform="translate(1298,1111)" d="m0 0c0.99 0.33 1.98 0.66 3 1v17c-3.96 0.495-3.96 0.495-8 1v4c1.65-0.33 3.3-0.66 5-1 0.495-1.48 0.495-1.48 1-3h2v4c-3.96 0.495-3.96 0.495-8 1v4h-6v2h-4v2h-2v2h-15c-0.33-1.32-0.66-2.64-1-4-3-1.3-3-1.3-6-2-1-7.62-1-7.62-1-11 1.42-0.339 2.83-0.671 4.25-1 1.18-0.278 1.18-0.278 2.39-0.562 4.04-0.749 5.9-0.747 9.36 1.56 2.15-0.308 2.15-0.308 4-1v-3h-5l2-2h3c0.33-2.64 0.66-5.28 1-8 2.44-0.027 4.87-0.0468 7.31-0.0625 0.69-0.00838 1.38-0.0168 2.09-0.0254 3.14-0.0152 5.59 0.086 8.6 1.09 0.33-1.32 0.66-2.64 1-4z" fill="#FAFDFE"/>
<path transform="translate(126 791)" d="m0 0c0.863 0.00202 1.73 0.00405 2.62 0.00613 0.887-9.57e-4 1.77-0.00191 2.69-0.0029 1.89-6.82e-4 3.77 0.00118 5.66 0.00534 2.86 0.0053 5.72 8.35e-5 8.59-0.00635 1.83 6.62e-4 3.67 0.00194 5.5 0.00391 0.847-0.00202 1.69-0.00405 2.57-0.00613 4.09 0.0158 8.16 0.135 12.2 0.46 0.724 0.0568 1.45 0.114 2.19 0.172 1.82 0.507 1.82 0.507 3.82 3.51 0.484 2.41 0.484 2.41 0.75 5.06 0.147 1.32 0.147 1.32 0.297 2.66-0.0469 2.28-0.0469 2.28-2.05 4.28-2.07 0.299-2.07 0.299-4.66 0.366-0.968 0.0296-1.94 0.0591-2.93 0.0896-1.57 0.0314-1.57 0.0314-3.18 0.0635-1.61 0.0397-1.61 0.0397-3.26 0.0802-2.28 0.0528-4.56 0.1-6.83 0.143-3.49 0.0692-6.97 0.165-10.5 0.263-2.21 0.0479-4.42 0.0941-6.63 0.139-1.04 0.0311-2.09 0.0622-3.17 0.0942-1.46 0.0207-1.46 0.0207-2.95 0.0418-0.856 0.0184-1.71 0.0368-2.59 0.0557-2.9-0.419-4.23-1.31-6.33-3.34-1.31-4.96-1.01-8.3 1-13 1.89-1.89 4.62-1.13 7.13-1.14z"/>
<path transform="translate(515,234)" d="m0 0h1v13h12c0.33-1.98 0.66-3.96 1-6h4v-3h3v2h2v-2h3v2c0.639 0.103 1.28 0.206 1.94 0.312 0.681 0.227 1.36 0.454 2.06 0.688 0.33 0.99 0.66 1.98 1 3h4v3h8v3h3v2h-2v2h-2c-0.495 1.49-0.495 1.49-1 3h-2v2h-2c-0.33 1.32-0.66 2.64-1 4h-2v3c-6.16 1.03-11.8 1.08-18 0-1-1-1-1-1.1-2.85l0.0977-6.15h-2v7h-3v-7h-2v7h-3c-0.33-2.31-0.66-4.62-1-7h-3v-3h3v-2c-1.32-0.33-2.64-0.66-4-1-0.773-5.91-1.15-11.1 0-17z" fill="#FAFDFE"/>
<path transform="translate(1462 791)" d="m0 0c0.852-0.00459 1.7-0.00918 2.58-0.0139 14 0.0346 14 0.0346 16.1 2.14 0.125 1.98 0.176 3.96 0.188 5.94 0.0142 1.08 0.0284 2.16 0.043 3.28-0.23 2.79-0.23 2.79-2.23 4.79-2.58 0.119-2.58 0.119-5.81-0.0586-1.74-0.0841-1.74-0.0841-3.51-0.17-1.21-0.069-2.43-0.138-3.68-0.209-2.4-0.128-4.79-0.252-7.19-0.371-1.07-0.0599-2.13-0.12-3.23-0.181-2.57-0.204-2.57-0.204-4.58 0.99-3.47 0.239-6.96 0.185-10.4 0.188-0.967 0.0122-1.93 0.0245-2.93 0.0371-1.39 0.0029-1.39 0.0029-2.81 0.00586-0.851 0.00411-1.7 0.00822-2.58 0.0125-2.24-0.243-2.24-0.243-5.24-2.24-1.35-4.58-0.92-7.65 1-12 2.22-1.11 3.58-1.19 6.05-1.32 0.834-0.0421 1.67-0.0841 2.53-0.127 1.35-0.0587 1.35-0.0587 2.74-0.119 1.39-0.0626 1.39-0.0626 2.82-0.126 6.73-0.277 13.5-0.416 20.2-0.436z"/>
<path transform="translate(1116 1340)" d="m0 0c4.7 1.18 7.36 5.2 9.82 9.16 0.797 1.36 1.58 2.72 2.36 4.09 0.422 0.732 0.844 1.46 1.28 2.22 1.36 2.38 2.7 4.76 4.03 7.16 0.468 0.837 0.935 1.67 1.42 2.54 1.4 2.52 2.78 5.05 4.15 7.59 0.429 0.781 0.859 1.56 1.3 2.37 2.39 4.51 3.86 8.31 4.14 13.5-0.938 2.44-0.938 2.44-2 4-4.12 0.603-5.81 0.117-9.38-2.12-4.28-3.99-6.83-9.07-9.58-14.2-1.9-3.52-4.05-6.86-6.23-10.2-4.09-6.54-6.53-13.2-8.81-20.5 4.69-4.92 4.69-4.92 7.5-5.62z"/>
<path transform="translate(464,206)" d="m0 0c6.01 5.04 9.9 12.4 13.5 19.2 1.44 2.66 2.97 5.22 4.57 7.79 8.07 13.4 8.07 13.4 7.75 19.7-0.268 0.763-0.536 1.53-0.812 2.31-4.49 1.15-7.61 0.854-11.9-0.697-2.84-1.8-3.77-3.87-5.33-6.83-0.596-1.12-1.19-2.24-1.81-3.4-0.618-1.19-1.24-2.38-1.85-3.57-0.608-1.15-1.22-2.29-1.84-3.48-11.4-21.6-11.4-21.6-11.2-30 3.05-1.52 5.64-1.24 9-1z"/>
<path transform="translate(255,1110)" d="m0 0c2.24 2.7 2.95 4.44 3.25 7.94-3.02 7.41-13.5 10.9-20.2 14.7-6.88 3.83-13.5 8.04-20 12.4-5.89 0-8.99-3.12-13-7 1.29-4.07 2.41-5.71 6.18-7.68 0.84-0.45 1.68-0.899 2.55-1.36 0.894-0.459 1.79-0.918 2.71-1.39 0.909-0.483 1.82-0.966 2.76-1.46 1.8-0.953 3.6-1.9 5.4-2.84 2.86-1.49 5.7-3.02 8.53-4.57 0.817-0.443 1.63-0.887 2.48-1.34 3.49-1.96 6.9-4.04 10.3-6.14 3.33-1.9 5.53-2.76 9.09-1.2z"/>
<path transform="translate(210,453)" d="m0 0c9.85 2.1 18.3 7.12 27 12 1.19 0.666 1.19 0.666 2.4 1.35 2.35 1.33 4.7 2.68 7.04 4.03 0.728 0.416 1.46 0.833 2.21 1.26 6.73 3.95 6.73 3.95 7.91 8.48 0.106 0.764 0.211 1.53 0.32 2.32 0.121 0.762 0.242 1.52 0.367 2.31-0.339 3.16-1.89 4.25-4.24 6.25-0.9-0.51-1.8-1.02-2.73-1.55-1.3-0.735-2.6-1.47-3.9-2.2-0.701-0.396-1.4-0.792-2.12-1.2-4.29-2.41-8.6-4.78-12.9-7.11-0.965-0.519-1.93-1.04-2.92-1.57-1.89-1.02-3.78-2.03-5.68-3.03-14.6-7.86-14.6-7.86-17.2-13.7-0.165-0.866-0.33-1.73-0.5-2.62 1.65-1.65 3.3-3.3 5-5z"/>
<path transform="translate(1344,1109)" d="m0 0c10.2 0.509 19.7 6.89 28.2 11.9 1.04 0.608 2.08 1.22 3.15 1.84 14.7 8.65 14.7 8.65 17.2 12.8 0.438 2.44 0.438 2.44-0.125 4.5-1.83 2.46-3.98 4.12-6.44 5.94-3.91-1.43-7.29-3.28-10.8-5.48-1.11-0.688-2.22-1.38-3.37-2.09-1.16-0.726-2.33-1.45-3.49-2.18-2.27-1.41-4.55-2.82-6.82-4.23-1.09-0.684-2.19-1.37-3.32-2.07-3.66-2.25-7.39-4.36-11.2-6.43-2.5-1.87-3.64-3.73-5.01-6.51-0.312-3.19-0.312-3.19 0-6l2-2z"/>
<path transform="translate(805,118)" d="m0 0c1 1 1 1 1.12 3.09-0.00333 1.38-0.00333 1.38-0.00673 2.79-7.55e-5 1.04-1.51e-4 2.08-2.29e-4 3.15-0.00516 1.13-0.0103 2.26-0.0156 3.43-0.00141 1.15-0.00283 2.31-0.00429 3.49-0.00562 3.7-0.0182 7.4-0.0309 11.1-0.00501 2.5-0.00958 5-0.0137 7.5-0.0111 6.15-0.0278 12.3-0.0488 18.4-1.58 0.0544-3.17 0.093-4.75 0.125-1.32 0.0348-1.32 0.0348-2.67 0.0703-2.69-0.204-4.28-0.83-6.58-2.2-0.193-6.94-0.371-13.9-0.537-20.8-0.0585-2.36-0.121-4.73-0.187-7.09-0.0939-3.39-0.175-6.78-0.253-10.2-0.0322-1.06-0.0644-2.12-0.0976-3.22-0.0202-0.981-0.0403-1.96-0.0611-2.97-0.0222-0.866-0.0444-1.73-0.0673-2.62 0.203-2.1 0.203-2.1 2.2-4.1 4.19-1.32 7.73-0.821 12 0z"/>
<path transform="translate(804,1427)" d="m0 0c2.14 3.2 2.21 3.91 2.06 7.56-0.18 3.35-0.18 3.35 0.938 6.44 0.0167 3.06-0.0277 6.1-0.121 9.16-0.0236 0.907-0.0472 1.81-0.0715 2.75-0.0767 2.9-0.161 5.81-0.245 8.71-0.0532 1.97-0.106 3.93-0.158 5.9-0.129 4.83-0.265 9.65-0.404 14.5-1.58 0.0544-3.17 0.093-4.75 0.125-1.32 0.0348-1.32 0.0348-2.67 0.0703-2.69-0.204-4.28-0.83-6.58-2.2-0.0295-3.92-0.047-7.83-0.0625-11.8-0.00838-1.09-0.0168-2.18-0.0254-3.31-0.0162-5.48 0.118-10.9 0.631-16.3 0.509-5.45 0.115-10.5-0.582-15.9 0.0391-2.71 0.0391-2.71 1.4-4.54 3.52-2.53 6.57-2.46 10.6-1.18z"/>
<path transform="translate(1392,456)" d="m0 0c2 3 2 3 1.89 5.48-1.12 3.19-2.32 4.01-5.13 5.85-0.906 0.595-1.81 1.19-2.74 1.8-5.34 3.31-10.7 6.5-16.2 9.62-1.14 0.659-2.27 1.32-3.44 2-14.5 8.34-14.5 8.34-19.1 8.13-2.51-0.948-4.28-2.14-6.31-3.88 0.503-5.47 0.503-5.47 2.62-7.73 0.745-0.481 1.49-0.962 2.26-1.46 0.898-0.58 1.8-1.16 2.72-1.76 1.12-0.678 2.25-1.36 3.4-2.05 1.05-0.638 1.05-0.638 2.12-1.29 31.5-19 31.5-19 37.9-14.7z"/>
<path transform="translate(1141 206)" d="m0 0c3.44 1.06 3.44 1.06 5.48 3.51 1.1 4.07 0.809 4.63-1.06 8.21-1.05 1.78-2.13 3.54-3.23 5.29-0.559 0.926-1.12 1.85-1.69 2.81-1.14 1.88-2.28 3.75-3.43 5.62-1.44 2.34-2.82 4.69-4.19 7.07-3.89 6.75-7.91 13-13.4 18.6-3.34-0.614-6.02-1.35-9-3 0.38-6.75 3.15-11.6 6.44-17.4 0.536-0.963 1.07-1.93 1.62-2.92 3.37-6.01 6.83-12 10.4-17.8 0.396-0.652 0.793-1.3 1.2-1.98 3.03-4.82 4.97-7.8 10.9-7.9z"/>
<path transform="translate(489,1343)" d="m0 0c1.12 1.62 1.12 1.62 2 4-1.32 5.2-3.83 9.67-6.44 14.3-0.436 0.777-0.872 1.55-1.32 2.36-3.21 5.66-6.56 11.2-10.1 16.7-0.443 0.707-0.887 1.41-1.34 2.14-3.15 4.86-6.16 8.59-11.8 10.5-3.12-0.812-3.12-0.812-6-2-0.33-0.66-0.66-1.32-1-2 1.14-2.87 2.35-5.6 3.69-8.38 0.399-0.835 0.798-1.67 1.21-2.53 14-28.7 14-28.7 21.9-34.4 3.09-0.971 5.97-0.811 9.19-0.688z"/>
<path transform="translate(696,190)" d="m0 0v4c0.99-0.33 1.98-0.66 3-1-0.495-1.49-0.495-1.49-1-3h3v4h2v3h-3v4h-3c0.99 0.33 1.98 0.66 3 1l1 2c1.32-0.33 2.64-0.66 4-1v3h-3v2c-1.13 0.124-2.27 0.248-3.44 0.375-1.18 0.206-2.35 0.412-3.56 0.625-0.33 0.66-0.66 1.32-1 2h-7c-0.33 0.66-0.66 1.32-1 2v-2h-4c-0.33 0.66-0.66 1.32-1 2v-2c-0.617-0.0606-1.23-0.121-1.87-0.184-1.78-0.176-3.55-0.354-5.32-0.535-1.76-0.177-3.53-0.345-5.3-0.5-4.17-0.393-7.68-0.929-11.5-2.78-0.33-2.31-0.66-4.62-1-7h-6c0.33-1.32 0.66-2.64 1-4 1.65 0.33 3.3 0.66 5 1v-2h-6c0.33-1.32 0.66-2.64 1-4 3.04-0.0823 5.07 0.0239 8 1 2 0.352 4 0.688 6 1 0.33 1.32 0.66 2.64 1 4 0.629 0.0606 1.26 0.121 1.91 0.184 15.1 1.48 15.1 1.48 19.1 2.82 0.33-2.97 0.66-5.94 1-9 4-1 4-1 8-1z" fill="#FAFDFE"/>
<path transform="translate(233,505)" d="m0 0c3.12-0.029 6.25-0.0468 9.38-0.0625 1.33-0.0126 1.33-0.0126 2.7-0.0254 1.28-0.00483 1.28-0.00483 2.58-0.00977 0.786-0.00524 1.57-0.0105 2.38-0.0159 1.97 0.114 1.97 0.114 3.97 1.11v2h4v2h2c0.027 1.62 0.0464 3.25 0.0625 4.88 0.0116 0.905 0.0232 1.81 0.0352 2.74-0.0977 2.38-0.0977 2.38-1.1 4.38h-4c-0.66 0.66-1.32 1.32-2 2v-2h-4c-0.33 0.66-0.66 1.32-1 2v-2c-1.05-0.0387-1.05-0.0387-2.12-0.0781-0.91-0.0567-1.82-0.113-2.76-0.172-1.36-0.0696-1.36-0.0696-2.74-0.141-2.38-0.609-2.38-0.609-3.7-2.66-0.224-0.645-0.449-1.29-0.68-1.95h-5c-0.258-7.73-0.258-7.73 2-12z" fill="#FAFDFE"/>
<path transform="translate(1151,298)" d="m0 0h3v2h2v-2h3v2h7v4h2v2c0.965-0.491 0.965-0.491 1.95-0.992 4.03-1.33 7.65-1.22 11.9-1.13 1.18 0.0135 1.18 0.0135 2.39 0.0273 1.93 0.0234 3.87 0.0593 5.8 0.0977v6c-1.98 0.99-1.98 0.99-4 2v-5c-0.33 0.99-0.66 1.98-1 3-0.66 0.33-1.32 0.66-2 1 0.66 0.33 1.32 0.66 2 1v3c-3.74 1.82-6.01 2.33-10 1-0.33-0.66-0.66-1.32-1-2v3c-5.86-1.66-11.5-3.47-17-6v-2c-0.619-0.0619-1.24-0.124-1.88-0.188-2.12-0.812-2.12-0.812-3.38-3.38-0.247-0.804-0.495-1.61-0.75-2.44 0.33-0.33 0.66-0.66 1-1-0.409-2.05-0.409-2.05-1-4z" fill="#FAFDFE"/>
<path transform="translate(985,1274)" d="m0 0c0.33 0.66 0.66 1.32 1 2h4c0.33-0.66 0.66-1.32 1-2v8c0.99-0.66 1.98-1.32 3-2v-4h2v6h4c0.124 0.969 0.247 1.94 0.375 2.94 0.206 1.01 0.413 2.02 0.625 3.06 0.66 0.33 1.32 0.66 2 1-0.33 0.33-0.66 0.66-1 1-0.0406 1.67-0.0427 3.33 0 5h3c-0.66-0.33-1.32-0.66-2-1 0.33-1.32 0.66-2.64 1-4h3v6c1.32 0.33 2.64 0.66 4 1v6c1.32 0.33 2.64 0.66 4 1-0.33 0.99-0.66 1.98-1 3-0.66-0.33-1.32-0.66-2-1v-2h-2c-0.33 0.99-0.66 1.98-1 3-0.66-0.33-1.32-0.66-2-1l-1 2c1.32 0.33 2.64 0.66 4 1-0.33 0.99-0.66 1.98-1 3-0.66-0.33-1.32-0.66-2-1v-2h-2v-5c-1.2-0.0206-2.39-0.0412-3.62-0.0625-3.73-0.443-5.32-1.46-7.75-4.31-4.04-5.31-4.84-8.02-4.62-14.6h-4v-11z" fill="#FAFDFE"/>
<path transform="translate(174,863)" d="m0 0c0.66 1.65 1.32 3.3 2 5-1.78 2.27-2.68 2.95-5.57 3.42-1.01 0.0198-2.01 0.0396-3.05 0.0601-1.1 0.0309-2.2 0.0619-3.33 0.0938-1.72 0.0271-1.72 0.0271-3.48 0.0547-2.27 0.0511-4.54 0.106-6.81 0.164-1.01 0.0176-2.01 0.0351-3.05 0.0532-2.39 0.14-4.4 0.52-6.7 1.16-1.37 0.0415-2.75 0.0418-4.12 0-3.67-0.289-3.67-0.289-5.88 1-7.09 0.457-7.09 0.457-10.5-1.25-1.5-1.75-1.5-1.75-1.5-5.75 3.16-1.58 6.61-1.49 10.1-1.75 0.812-0.0652 1.62-0.13 2.46-0.197 1.73-0.137 3.45-0.273 5.18-0.406 2.6-0.202 5.21-0.413 7.81-0.625 8.84-0.703 17.6-1.25 26.5-1.02z"/>
<path transform="translate(744,1376)" d="m0 0h2v4h4c-0.33-0.99-0.66-1.98-1-3h2v3h4c0.33 1.98 0.66 3.96 1 6 0.66-0.99 1.32-1.98 2-3h2v4c0.99-0.33 1.98-0.66 3-1v2h3v-2h2v2c0.99 0.33 1.98 0.66 3 1 0.33 1.65 0.66 3.3 1 5h3c0.33 0.99 0.66 1.98 1 3 1.02 0.99 1.02 0.99 2.06 2 1.94 2 1.94 2 1.94 5 0.66 0.33 1.32 0.66 2 1h-3v-2h-2v-2h-2v3c0.66 0.33 1.32 0.66 2 1-0.99 0.495-0.99 0.495-2 1v3c0.66 0.33 1.32 0.66 2 1h-3v-2h-2v-2h-2v-2h-2v-4h-13v-3h2v-2h-2c-0.33-1.32-0.66-2.64-1-4h-5v-4h-4c0.33-0.99 0.66-1.98 1-3 0.99 0.33 1.98 0.66 3 1v-3c-1.65 0.33-3.3 0.66-5 1v-7z" fill="#FAFDFE"/>
<path transform="translate(1038,231)" d="m0 0 4 1h-3v6c0.33-0.66 0.66-1.32 1-2h2c0.66-1.32 1.32-2.64 2-4 0.33 1.32 0.66 2.64 1 4 1.1 0.133 2.19 0.266 3.32 0.402 1.45 0.178 2.91 0.357 4.36 0.535 0.721 0.087 1.44 0.174 2.19 0.264 3.75 0.462 7.43 0.991 11.1 1.8v2h-5v6c0.268-0.639 0.536-1.28 0.812-1.94 1.19-2.06 1.19-2.06 4.19-3.06v6c-1.65 0.33-3.3 0.66-5 1v3h5c-2 2-2 2-5.12 2.12-1.42-0.0619-1.42-0.0619-2.88-0.125-0.33-1.32-0.66-2.64-1-4v3c-1.94-0.312-1.94-0.312-4-1-0.33-0.99-0.66-1.98-1-3v4h-10c-0.8-3.29-1.1-4.71 0-8-1.65-0.33-3.3-0.66-5-1-0.027-1.79-0.0464-3.58-0.0625-5.38-0.0116-0.998-0.0232-2-0.0352-3.02 0.0977-2.6 0.0977-2.6 1.1-4.6z" fill="#FAFDFE"/>
<path transform="translate(1387,606)" d="m0 0v3c0.306 1.34 0.635 2.68 1 4h-2c0.66 1.32 1.32 2.64 2 4 0.66-3.3 1.32-6.6 2-10 0.99-0.33 1.98-0.66 3-1-0.165 0.763-0.33 1.53-0.5 2.31-0.715 3.85-0.318 6.91 0.5 10.7 0.681 0.0825 1.36 0.165 2.06 0.25 4.98 1.27 9.56 3.78 12.9 7.75-0.33 0.99-0.66 1.98-1 3 0.33 0.66 0.66 1.32 1 2-0.66 0.99-1.32 1.98-2 3v3c-1.32-0.33-2.64-0.66-4-1v-3c-0.33 1.32-0.66 2.64-1 4h-5v-3h-4v-2h-2c-0.33-1.65-0.66-3.3-1-5-1.98-0.33-3.96-0.66-6-1-1.76-6.88-0.195-13.3 2-20 0.66-0.33 1.32-0.66 2-1z" fill="#FAFDFE"/>
<path transform="translate(1416,745)" d="m0 0c0.66 0.33 1.32 0.66 2 1v3h2c0.66-1.32 1.32-2.64 2-4 0.103 0.639 0.206 1.28 0.312 1.94 0.34 1.02 0.34 1.02 0.688 2.06 0.99 0.33 1.98 0.66 3 1v2l4 2v2h3v3h3.43 17.6c0.495 1.49 0.495 1.49 1 3-10.4 0.495-10.4 0.495-21 1 1.92 0.165 3.84 0.33 5.81 0.5 1.62 0.139 1.62 0.139 3.27 0.281 2.93 0.256 2.93 0.256 5.92 0.219v2h6v1h-22v2c-0.99-0.33-1.98-0.66-3-1-0.66 0.99-1.32 1.98-2 3v-2c-2.31-0.33-4.62-0.66-7-1-0.33-3.3-0.66-6.6-1-10h-6v-9h2v-4z" fill="#FAFDFE"/>
<path transform="translate(120,670)" d="m0 0c0.99-0.33 1.98-0.66 3-1 2.19 1.44 2.19 1.44 4 3-0.33 0.33-0.66 0.66-1 1 1.09 3.25 1.09 3.25 3 6v-7c3.23 1.61 3.63 4.98 4.81 8.25 1.1 2.02 1.1 2.02 3.75 2.44 1.21 0.155 1.21 0.155 2.44 0.312 1 1 1 1 1.1 3.29-0.0116 0.917-0.0232 1.83-0.0352 2.78-0.00902 0.919-0.018 1.84-0.0273 2.79-0.0116 0.71-0.0232 1.42-0.0352 2.15h-2c-0.381-2.33-0.713-4.66-1-7 0.33-0.33 0.66-0.66 1-1-0.66-0.33-1.32-0.66-2-1-0.33 3.3-0.66 6.6-1 10h-3v-5h-9v-7c-0.33 0.99-0.66 1.98-1 3h-3c-0.33-0.99-0.66-1.98-1-3h-2c0.66 1.65 1.32 3.3 2 5h-2v4h-3v-7c-0.66-0.33-1.32-0.66-2-1h2v-4c-0.66-0.33-1.32-0.66-2-1h2v-9c3-1 3-1 6 0z" fill="#FAFDFE"/>
<path transform="translate(765 355)" d="m0 0c1.74 0.153 1.74 0.153 3.52 0.309 0.88 0.0838 1.76 0.168 2.67 0.254v2c-1.65 0.33-3.3 0.66-5 1v2h5v7h-3c-0.66-1.32-1.32-2.64-2-4v4c-10 0.876-19.1 1.3-29-1v-2h-4v-2c0.99-0.33 1.98-0.66 3-1 0.33-0.66 0.66-1.32 1-2h-4v-2c3.29-1.1 5.74-1.1 9.19-1.06 1.63 0.0135 1.63 0.0135 3.29 0.0273 0.831 0.0116 1.66 0.0232 2.52 0.0352v3h5v-4c4.1-1.04 7.61-0.944 11.8-0.562z" fill="#FAFDFE"/>
<path transform="translate(185,928)" d="m0 0c0.66 1.32 1.32 2.64 2 4-4.01 4.55-9.31 4.79-15.1 5.24-1.64 0.0986-1.64 0.0986-3.31 0.199-5.13 0.33-9.57 1.25-14.4 2.87-2.68 0.869-5.35 1.28-8.13 1.69-1.08 0.3-1.08 0.3-2.19 0.605-6.18 1.68-6.18 1.68-9.88 0.0195-0.639-0.536-1.28-1.07-1.94-1.62 0.33-1.32 0.66-2.64 1-4 0.548-0.11 1.1-0.219 1.66-0.332 1.71-0.343 3.43-0.687 5.14-1.03 2.33-0.464 4.66-0.918 6.99-1.37 0.981-0.191 0.981-0.191 1.98-0.385 1.9-0.37 3.81-0.736 5.71-1.1 3.28-0.728 6.34-1.7 9.52-2.78 7.03-1.68 13.8-2.28 21-2z"/>
<path transform="translate(993,1397)" d="m0 0h4c3.5 6.78 5.82 13.5 7.55 20.9 1.02 4.36 2.21 8.61 3.58 12.9 2.38 7.56 4.31 15.2 3.88 23.2-0.33-1.32-0.66-2.64-1-4-0.897-0.0928-0.897-0.0928-1.81-0.188-3.14-1.17-3.65-2.87-5.19-5.81-0.773-2.24-1.47-4.5-2.12-6.78-0.186-0.648-0.372-1.3-0.564-1.96-0.591-2.06-1.17-4.13-1.75-6.2-0.385-1.35-0.771-2.7-1.16-4.06-0.764-2.67-1.52-5.35-2.28-8.02-1.13-4-2.27-7.99-3.41-12-0.33-1.15-0.66-2.31-1-3.5-0.236-0.824-0.472-1.65-0.715-2.5 0.66-0.66 1.32-1.32 2-2z"/>
<path transform="translate(128 723)" d="m0 0c1.54 0.236 3.07 0.485 4.6 0.742 0.914 0.143 1.83 0.286 2.77 0.433 4.24 0.665 8.47 1.36 12.7 2.05 4.73 0.77 9.45 1.54 14.2 2.08 1.24 0.143 2.48 0.286 3.76 0.434 1.05 0.103 2.1 0.206 3.18 0.312 2.38 0.688 2.38 0.688 3.79 2.56 0.59 2.12 0.59 2.12-0.41 5.12-2.02-0.116-4.04-0.243-6.06-0.375-1.13-0.0696-2.25-0.139-3.41-0.211-3.53-0.414-3.53-0.414-6.61-1.4-6.74-2.07-14.2-1.7-21.2-1.96-9.95-0.554-9.95-0.554-13-3.63-0.549-0.801-1.1-1.6-1.66-2.43 2.39-3.28 3.25-4.06 7.4-3.74z"/>
<path transform="translate(287,446)" d="m0 0c11-0.776 11-0.776 14.8 2.06 1.49 3.51 1.55 6.16 1.25 9.94h-1v-6h-3c-0.33 0.99-0.66 1.98-1 3 0.99 0.33 1.98 0.66 3 1-1.98 0.33-3.96 0.66-6 1v2h-2v-2h-2v9c-1.32-0.33-2.64-0.66-4-1v-4c-0.33 1.65-0.66 3.3-1 5-3.3-0.66-6.6-1.32-10-2v-9h2v-7h9v-2z" fill="#FAFDFE"/>
<path transform="translate(1464,656)" d="m0 0c0.625 1.81 0.625 1.81 1 4-0.66 0.99-1.32 1.98-2 3-2.88 0.562-2.88 0.562-4.76 0.762-7.96 0.847-15.7 2.5-23.4 4.55-4.85 1.19-9.55 1.85-14.5 1.93-1.42 0.0387-1.42 0.0387-2.86 0.0781-0.789-0.108-1.58-0.217-2.39-0.328-0.66-0.99-1.32-1.98-2-3 2.4-3.04 3.68-3.94 7.54-4.72 1.36-0.128 2.72-0.241 4.09-0.34 5.55-0.538 10.5-1.42 15.8-3.21 4.48-1.26 9.07-1.73 13.7-2.3 7.22-1.07 7.22-1.07 9.91-0.43z"/>
<path transform="translate(141 655)" d="m0 0c1.73 0.282 3.46 0.6 5.19 0.938 1.73 0.319 1.73 0.319 3.5 0.645 6.98 1.34 13.9 2.88 20.8 4.67 2.57 0.643 5.13 1.17 7.73 1.68 3.29 0.704 5.51 1.62 8 4-0.33 1.32-0.66 2.64-1 4-5.04 0.387-8.62-0.0825-13.4-1.86-8.36-2.88-16.9-3.99-25.7-5.3-1.24-0.198-2.49-0.396-3.77-0.6-1.12-0.168-2.25-0.337-3.4-0.51-2.9-0.758-4-1.41-5.81-3.74 2.44-3.5 3.47-4.01 7.81-3.94z"/>
<path transform="translate(179,758)" d="m0 0c7.75-0.125 7.75-0.125 10 1 0.594 2.65 0.742 5.29 1 8h-5v5h-21c-0.33-0.66-0.66-1.32-1-2v6h-3c-0.66-1.32-1.32-2.64-2-4v4h-5v-3c0.99-0.33 1.98-0.66 3-1-0.99-0.33-1.98-0.66-3-1v-3c0.99-0.33 1.98-0.66 3-1 0.33-0.66 0.66-1.32 1-2h2v-2h20v-5z" fill="#FAFDFE"/>
<path transform="translate(1089,253)" d="m0 0h1v7h4v-7h1v7h4v3c2.47 0.99 2.47 0.99 5 2-0.99 0.495-0.99 0.495-2 1 0.278 0.928 0.278 0.928 0.562 1.88 0.438 2.12 0.438 2.12-0.562 4.12 0.99-0.33 1.98-0.66 3-1 1.88 0.0874 3.75 0.242 5.62 0.438 3.76 0.363 7.41 0.604 11.2 0.5 4.08-0.067 7.34 0.751 11.2 2.06-0.495 2.48-0.495 2.48-1 5-0.99-0.33-1.98-0.66-3-1l-2 1c0.495 1.98 0.495 1.98 1 4-3.88 1.27-5.71 0.317-9.43-1.23-5.34-1.6-11-1.54-16.6-1.77v-3h17c-3.76-1.25-7.27-1.11-11.2-1.06-0.75 0.00451-1.5 0.00902-2.27 0.0137-1.85 0.0118-3.69 0.0297-5.54 0.0488-0.66-2.31-1.32-4.62-2-7h-4v-2h-2v3c-0.99-0.33-1.98-0.66-3-1v-16z" fill="#FAFDFE"/>
<path transform="translate(1261,1245)" d="m0 0c0.66 1.32 1.32 2.64 2 4h2c0.33-0.99 0.66-1.98 1-3h1v8c1.07-0.0412 2.14-0.0825 3.25-0.125 3.41 0.114 4.96 0.338 7.75 2.12v3h-8v2h3v3h2c0.33-1.32 0.66-2.64 1-4h2v12c-2.31-0.33-4.62-0.66-7-1v2h-3v-2h-2v2h-3c0.33-0.99 0.66-1.98 1-3h2v-2h-3c0.33-0.99 0.66-1.98 1-3h2c-0.33-0.66-0.66-1.32-1-2h-9c-0.125-5.75-0.125-5.75 1-8-1.32-0.33-2.64-0.66-4-1h4v-4c-1.32-0.33-2.64-0.66-4-1h7c0.33-1.32 0.66-2.64 1-4z" fill="#FAFDFE"/>
<path transform="translate(689,265)" d="m0 0h1v5h4v-5h1v5h4c0.33 0.66 0.66 1.32 1 2 1.99 0.381 3.99 0.713 6 1l2 1v3c0.516 0.0825 1.03 0.165 1.56 0.25 7.34 2.26 7.34 2.26 9.44 4.75 1.47 6.41 1.97 12.1-1 18-0.33-5.61-0.66-11.2-1-17h-3c0.33 4.29 0.66 8.58 1 13l-3-3c0.312-2.69 0.312-2.69 1-5h-4v-2c-1.65 0.33-3.3 0.66-5 1v-2c-1.32-0.33-2.64-0.66-4-1-0.33 0.99-0.66 1.98-1 3v-2h-2v-5h-8v-15z" fill="#FAFDFE"/>
<path transform="translate(1477,725)" d="m0 0c0.625 1.81 0.625 1.81 1 4-2 3-2 3-5 4-1.57 0.0588-3.15 0.0611-4.72 0.0273-0.927-0.0135-1.85-0.0271-2.81-0.041-0.981-0.0161-1.96-0.0322-2.97-0.0488-6.85-0.0661-13.2 0.0656-19.9 1.62-5.47 0.935-11.1 0.591-16.6 0.445-0.66-1.32-1.32-2.64-2-4 2.88-2.88 6.05-2.68 9.94-3.06 0.794-0.0838 1.59-0.168 2.41-0.254 6.66-0.668 13.3-1.05 20-1.25 4.74-0.182 9.08-0.861 13.7-2.05 2.52-0.495 4.52-0.168 6.95 0.617z"/>
<path transform="translate(871 122)" d="m0 0c0.619 0.289 1.24 0.578 1.88 0.875 2.58 7.75-0.187 17.4-1.59 25.3-0.543 3.63-0.467 7.05-0.406 10.7-0.373 5.21-1.45 10-3 15-4.88-0.875-4.88-0.875-6-2 0.0571-1.82 0.19-3.64 0.352-5.46 0.101-1.18 0.202-2.36 0.306-3.57 0.113-1.31 0.226-2.62 0.343-3.97 0.165-2.13 0.323-4.26 0.481-6.39 0.225-2.99 0.467-5.97 0.711-8.95 0.123-1.54 0.241-3.08 0.354-4.62 0.167-2.26 0.351-4.51 0.539-6.77 0.047-0.687 0.094-1.37 0.142-2.08 0.252-2.84 0.498-4.81 2.2-7.15 1.58-1.04 1.58-1.04 3.7-0.913z"/>
<path transform="translate(1442 588)" d="m0 0c1.46 0.0271 1.46 0.0271 2.96 0.0547 0.736 0.0232 1.47 0.0464 2.23 0.0703 0.495 2.48 0.495 2.48 1 5-3.55 2.15-6.78 2.42-10.9 2.81-9.66 1.1-18.3 4.38-27.1 8.5-3.49 1.59-6.12 2.41-10 1.69-2.38-2-2.38-2-4-4 2.58-3.18 5.17-3.85 9.06-4.88 1.24-0.335 2.47-0.67 3.75-1.02 0.67-0.177 1.34-0.354 2.03-0.537 3.11-0.827 6.22-1.68 9.33-2.54 1.56-0.432 3.13-0.86 4.7-1.28 3.03-0.83 5.9-1.65 8.79-2.89 2.84-1.04 5.14-1.06 8.15-0.984z"/>
<path transform="translate(155,585)" d="m0 0c8.6 2.46 17.1 5.31 25.5 8.19 1.61 0.545 3.22 1.09 4.83 1.62 2.35 0.783 4.69 1.58 7.03 2.38 0.719 0.238 1.44 0.475 2.18 0.72 3.44 1.19 6.15 2.16 8.42 5.09-0.66 1.32-1.32 2.64-2 4-6.05-0.422-11.1-2.5-16.7-4.73-5.55-2.14-11.2-3.71-17-5.27-3.58-1.08-6.91-2.46-10.3-4-0.784-0.33-1.57-0.66-2.38-1-1.62-1-1.62-1-2.62-4 0.99-0.99 1.98-1.98 3-3z"/>
<path transform="translate(200,992)" d="m0 0c0.66 1.65 1.32 3.3 2 5-5.35 4.72-9.87 6.34-17 6v-2c-2.44 0.27-2.44 0.27-5 1-0.99 1.49-0.99 1.49-2 3-2.57 0.992-2.57 0.992-5.69 1.88-3.98 1.22-7.02 2.37-10.2 5-1.01 0.701-2.02 1.4-3.06 2.12-2.81-0.625-2.81-0.625-5-2-0.66-0.33-1.32-0.66-2-1 0.0625-2.31 0.0625-2.31 1-5 4.04-2.22 8.02-3.35 12.5-4.41 12.6-2.94 12.6-2.94 24.7-7.76 3.44-1.56 6.01-1.83 9.83-1.83z"/>
<path transform="translate(731,1425)" d="m0 0h3c2.39 3.66 1.79 5.81 1 10-0.0397 2.32-0.00161 4.63 0.0625 6.95-0.0625 2.05-0.0625 2.05-1.06 5.05-0.0717 2.13-0.0839 4.26-0.0625 6.38 0.00773 1.25 0.0155 2.5 0.0234 3.79 0.0129 1.31 0.0258 2.61 0.0391 3.96 0.0254 2.59 0.0465 5.17 0.0625 7.76 0.0116 1.15 0.0232 2.3 0.0352 3.48-0.0977 2.64-0.0977 2.64-1.1 3.64-2 0.203-2 0.203-4.44 0.25-0.803 0.0258-1.61 0.0516-2.43 0.0781-0.703-0.108-1.41-0.217-2.13-0.328-0.66-0.99-1.32-1.98-2-3 0.454-0.495 0.908-0.99 1.38-1.5 5.44-8.37 4.46-20.1 4.84-29.8 0.0379-0.905 0.0759-1.81 0.115-2.74 0.0736-1.8 0.138-3.6 0.194-5.4 0.0502-1.24 0.0502-1.24 0.101-2.5 0.0376-1.11 0.0376-1.11 0.0759-2.24 0.303-1.84 0.303-1.84 2.3-3.84z"/>
<path transform="translate(661,132)" d="m0 0c2.34 5.87 4.14 10.6 4 17 0.397 1.49 0.841 2.97 1.31 4.44 3.05 9.58 4.81 19.6 5.69 29.6-1.49 0.495-1.49 0.495-3 1-4.24-3.37-5.04-7.03-6-12.1-0.33-1.61-0.661-3.22-0.992-4.83-0.165-0.828-0.329-1.66-0.499-2.51-0.829-4.13-1.73-8.24-2.63-12.3-0.159-0.746-0.317-1.49-0.48-2.26-0.658-3.02-1.37-5.86-2.53-8.74-1.2-3.03-0.711-5.1 0.133-8.19 2-1 2-1 5-1z"/>
<path transform="translate(1433 863)" d="m0 0c1.61 0.2 1.61 0.2 3.26 0.404 1.73 0.221 1.73 0.221 3.49 0.447 8.86 1.1 17.6 2.02 26.6 2.16 4.08 0.123 6.45 0.596 9.43 3.47-0.66 1.65-1.32 3.3-2 5-9.12-0.664-18.2-1.45-27.3-2.38-1.21-0.113-2.42-0.227-3.67-0.344-6.5-0.668-12-1.62-18-4.28 0.375-1.94 0.375-1.94 1-4 2.68-1.34 4.28-0.86 7.25-0.477z"/>
<path transform="translate(730 123)" d="m0 0c1.24 0.155 1.24 0.155 2.5 0.312 0.66 0.99 1.32 1.98 2 3-0.367 1.81-0.367 1.81-1 4-0.0923 2-0.13 4-0.125 6-0.00258 1.03-0.00516 2.06-0.00781 3.12 0.115 2.5 0.459 4.49 1.13 6.88 0.547 3.77 1.02 7.26 0.938 11.1 0.0757 3.56 1.07 6.53 2.06 9.94 0.125 2.94 0.125 2.94 0 5-2.48 0.495-2.48 0.495-5 1-2.86-4.06-3.66-7.77-4.17-12.6-0.127-1.09-0.127-1.09-0.256-2.2-0.176-1.53-0.346-3.07-0.511-4.6-0.25-2.32-0.518-4.64-0.789-6.96-1.72-15-1.72-15-1.28-21.6 2-2 2-2 4.5-2.31z"/>
<path transform="translate(779,170)" d="m0 0h3v2h4v5h2v2c0.99 0.33 1.98 0.66 3 1 0.99 1.49 0.99 1.49 2 3 1.63 1.05 3.3 2.06 5 3-0.186 0.577-0.371 1.16-0.562 1.75-0.661 2.55-0.661 2.55 0.562 6.25h-16v-7c-1.65-0.33-3.3-0.66-5-1v-9h-3v-2h3v-3h2v-2z" fill="#FAFDFE"/>
<path transform="translate(939,132)" d="m0 0 4 1c1.39 4.59 0.406 7.49-1 12-0.329 1.6-0.64 3.21-0.938 4.81-0.639 3.36-1.47 6.51-2.56 9.75-2.29 7.25-2.76 14.9-3.5 22.4-2.88 0.125-2.88 0.125-6 0-0.66-0.66-1.32-1.32-2-2 0.0664-1.75 0.0664-1.75 0.562-4 0.197-0.895 0.394-1.79 0.598-2.71 0.634-2.48 1.31-4.93 2.02-7.39 0.439-1.51 0.878-3.02 1.32-4.52 0.224-0.767 0.447-1.53 0.677-2.32 1.84-6.57 2.71-13 3.27-19.8 0.566-3.33 1.29-4.82 3.55-7.26z"/>
<path transform="translate(1424,521)" d="m0 0v4c-5.27 3.22-10.5 5.41-16.3 7.44-6.09 2.17-11.9 4.48-17.6 7.5-5.25 2.71-10.1 4.52-16.1 4.07-0.33-0.99-0.66-1.98-1-3 2.16-2.4 4-3.61 7-4.76 0.796-0.311 1.59-0.621 2.41-0.941 0.854-0.325 1.71-0.65 2.59-0.985 1.8-0.703 3.61-1.41 5.41-2.11 1.38-0.541 1.38-0.541 2.8-1.09 4.44-1.76 8.84-3.62 13.2-5.48 4.49-1.91 4.49-1.91 6.7-2.84 1.59-0.671 3.17-1.35 4.75-2.04 2.47-0.877 3.69-0.647 6.11 0.25z"/>
<path transform="translate(345,292)" d="m0 0c8.58 2.94 14.3 11.2 20 18 0.514 0.594 1.03 1.19 1.56 1.8 1.79 2.07 3.55 4.17 5.32 6.26 0.876 1.01 0.876 1.01 1.77 2.04 3.6 4.33 5.13 7.23 5.35 12.9-7.09-3.3-11.5-7.35-16.2-13.6-4.3-5.61-8.79-10.9-13.6-16-2.18-2.39-4.2-4.86-6.19-7.4 0.66-1.32 1.32-2.64 2-4z"/>
<path transform="translate(523,176)" d="m0 0h3c4.29 8.97 8.33 18 12.1 27.2 2.21 5.32 4.56 10.5 7.15 15.7 0.831 2.48 0.592 3.71-0.285 6.13-3.9-0.556-5.52-1.98-8-5-1.47-3.13-2.6-6.37-3.75-9.62-2.94-8.09-6.16-15.9-9.9-23.7-2.72-5.82-2.72-5.82-1.35-9.69 0.33-0.33 0.66-0.66 1-1z"/>
<path transform="translate(224,1056)" d="m0 0 1 4c-4.33 2.92-8.75 4.34-13.7 5.88-7.48 2.41-14.6 5.06-21.2 9.36-3.39 2.17-4.92 2.78-9.03 2.52-1.01-0.247-2.02-0.495-3.06-0.75-0.33-1.32-0.66-2.64-1-4 2.85-2.34 5.33-3.63 8.84-4.72 0.917-0.293 1.83-0.585 2.78-0.887 1.92-0.596 3.84-1.19 5.76-1.79 0.917-0.293 1.83-0.585 2.78-0.887 0.833-0.258 1.67-0.517 2.53-0.783 2.48-1 4.22-2.29 6.32-3.94 2.12-0.984 4.27-1.9 6.44-2.75 1.11-0.449 2.22-0.897 3.37-1.36 3.28-0.916 4.98-0.876 8.19 0.109z"/>
<path transform="translate(588,152)" d="m0 0h6c1.96 3.5 2.94 7.16 4 11 0.186 0.67 0.373 1.34 0.565 2.03 0.605 2.18 1.21 4.35 1.81 6.53 1.91 6.88 3.85 13.8 5.83 20.6 0.64 2.27 1.24 4.53 1.8 6.82-1.81 0.625-1.81 0.625-4 1-3.64-2.42-3.69-3.46-4.8-7.57-0.316-1.14-0.632-2.27-0.958-3.44-0.329-1.21-0.657-2.42-0.996-3.67-2.63-9.4-5.52-18-10.2-26.6-1.05-2.72-1.05-2.72-0.234-5.1 0.389-0.535 0.779-1.07 1.18-1.62z"/>
<path transform="translate(864,1426)" d="m0 0c2 0 2 0 4 1 2.12 4.24 2.06 7.97 1.94 12.6 0.0895 3.48 0.877 6.72 1.63 10.1 0.434 2.32 0.434 2.32 0.371 5.64 0.0812 4.79 1.28 9.08 2.5 13.7 0.532 2.84 0.54 4.32-0.441 6.99-5.88-0.875-5.88-0.875-7-2-0.142-1.81-0.235-3.62-0.312-5.44-0.533-8.59-1.92-17-3.32-25.5-0.176-1.08-0.351-2.17-0.532-3.28-0.161-0.969-0.322-1.94-0.489-2.94-0.371-3.01-0.546-5.82-0.351-8.85 0.66-0.66 1.32-1.32 2-2z"/>
<path transform="translate(1056,1374)" d="m0 0c2.48 0.0376 2.48 0.0376 5 1 1.3 2.33 1.3 2.33 2.25 5.4 0.363 1.12 0.726 2.24 1.1 3.39 0.36 1.18 0.721 2.36 1.09 3.58 2.46 7.91 5.07 15.1 9.28 22.3 2.21 3.99 3.29 7.73 3.29 12.3-2.27-0.125-2.27-0.125-5-1-8.49-11.2-17.5-31.1-19-45l2-2z"/>
<path transform="translate(294,343)" d="m0 0c8.84 2.21 14.9 8.76 21.4 14.8 3.24 3.01 6.57 5.8 10.1 8.49 3.73 2.94 6.44 5.37 8.5 9.69-0.25 2.38-0.25 2.38-1 4-4.46-1.42-7.37-3.87-10.7-7.06-1.06-0.995-2.12-1.99-3.18-2.98-0.526-0.497-1.05-0.994-1.59-1.51-5.67-5.35-11.4-10.5-17.7-15.1-2.71-2-5.26-4.17-7.83-6.35 0.66-1.32 1.32-2.64 2-4z"/>
<path transform="translate(1009,150)" d="m0 0c0.99 0.66 1.98 1.32 3 2-0.869 8.72-3.4 16.4-6.39 24.6-2.05 5.66-3.72 11.3-4.91 17.2-0.799 2.52-1.62 3.62-3.7 5.21-2.56 0.375-2.56 0.375-5 0-0.66-0.99-1.32-1.98-2-3 0.627-2.25 0.627-2.25 1.85-4.87 0.438-0.962 0.875-1.92 1.33-2.92 0.478-1.02 0.955-2.04 1.45-3.09 4.44-9.82 8.07-19.3 10.4-29.8 0.938-3.31 0.938-3.31 3.94-5.31z"/>
<path transform="translate(1419 927)" d="m0 0c0.74 0.184 1.48 0.369 2.24 0.559 1.32 0.311 1.32 0.311 2.66 0.629 1.06 0.267 2.12 0.534 3.21 0.809 2.09 0.497 4.18 0.987 6.27 1.48 1.49 0.35 2.99 0.703 4.48 1.06 4.59 1.09 9.19 2.07 13.8 2.96 4.85 1.01 9.63 2.27 14.4 3.5 0.495 2.48 0.495 2.48 1 5-7.27 0.251-7.27 0.251-10.7-0.94-3.31-1.07-6.45-1.68-9.88-2.21-1.87-0.302-1.87-0.302-3.78-0.609-2.6-0.409-5.2-0.813-7.8-1.21-13.8-2.25-13.8-2.25-19.8-6.03-0.33-0.66-0.66-1.32-1-2 2.43-3 2.43-3 4.88-3z"/>
<path transform="translate(177,551)" d="m0 0c0.33 0.66 0.66 1.32 1 2h4c0.33-0.66 0.66-1.32 1-2v2c2.97 0.33 5.94 0.66 9 1v2c0.987-0.0348 1.97-0.0696 2.99-0.105 1.28-0.0271 2.56-0.0541 3.88-0.082 1.91-0.0522 1.91-0.0522 3.87-0.105 1.61 0.145 1.61 0.145 3.26 0.293 2 3 2 3 2 6 0.66 0.33 1.32 0.66 2 1h-4v-2c-0.33 0.33-0.66 0.66-1 1-0.66 0.66-1.32 1.32-2 2v3c0.66 0.33 1.32 0.66 2 1h-4v-2h-4v-3h-8v6h-4v-5c-0.33 1.65-0.66 3.3-1 5-1.98-0.33-3.96-0.66-6-1v-2h2v-3h-2c-0.33-2.31-0.66-4.62-1-7 0.33 0.66 0.66 1.32 1 2h2v-3h-3v-4z" fill="#FAFDFE"/>
<path transform="translate(1076,174)" d="m0 0c1.61 1.64 1.61 1.64 3 4-0.449 2.64-0.449 2.64-1.69 5.81-0.476 1.22-0.951 2.45-1.44 3.71-3.46 8.38-7.1 16.7-10.8 25-0.955 2.18-1.86 4.37-2.76 6.57-1.39 3.05-2.47 4.25-5.33 5.93-0.99-0.66-1.98-1.32-3-2 0.553-5.25 2.33-9.1 4.75-13.7 0.73-1.43 1.46-2.85 2.19-4.28l1.07-2.09c3.7-7.26 6.63-14.5 8.9-22.3 1.22-2.95 2.71-4.54 5.09-6.63z"/>
<path transform="translate(1221,1267)" d="m0 0c4.9 0.272 6.74 2.53 10 6 1.71 1.99 3.39 3.98 5.06 6 4.49 5.39 9.16 10.6 14.1 15.6 2.79 2.94 4.89 5.43 5.88 9.4-0.375 2.31-0.375 2.31-1 4-10.2-6.84-18.1-16.2-25.4-26-1.69-2.1-3.51-3.9-5.47-5.74-2.24-2.16-3.08-3.11-4.12-6.12 0-2.12 0-2.12 1-3.12z"/>
<path transform="translate(667,1414)" d="m0 0h2c2.49 3.73 2.01 4.81 1.25 9.12-0.201 1.16-0.402 2.32-0.609 3.52-1.06 5.55-2.29 11-3.7 16.5-0.88 3.64-1.44 7.17-1.94 10.9-0.642 3.67-1.32 7.34-2 11h-7c-1.07-3.23-0.932-4.95 0.277-8.11 1.79-4.98 3.08-9.99 4.29-15.1 0.218-0.915 0.437-1.83 0.662-2.77 1.43-6.14 2.54-12.2 3.22-18.5 0.633-2.85 1.56-4.38 3.55-6.5z"/>
<path transform="translate(932 1415)" d="m0 0c1.94 1 1.94 1 3.19 3.12 0.885 3.39 0.75 6.37 0.75 9.88 0.395 2.46 0.903 4.88 1.43 7.32 0.591 2.78 1.09 5.57 1.57 8.37 0.544 3.06 1.17 5.89 2.06 8.88 1.21 4.45 1.59 8.85 1.94 13.4-1.98 0.495-1.98 0.495-4 1-3.09-4.38-4-8.59-5-13.8-0.168-0.832-0.336-1.66-0.509-2.52-1.26-6.3-2.4-12.6-3.45-18.9-0.578-3.44-1.29-6.78-2.2-10.1-0.844-3.64-0.844-3.64 0.281-5.7 1.88-0.938 1.88-0.938 3.94-0.938z"/>
<path transform="translate(1169,1308)" d="m0 0h4c3 3.21 3 3.21 3 6h2c1.62 2.01 1.62 2.01 3.44 4.69 0.597 0.87 1.19 1.74 1.81 2.64 1.1 1.67 2.16 3.36 3.16 5.09 1.61 2.62 3.41 5.05 5.26 7.5 4.55 6.07 7.96 11.5 9.33 19.1h-2v-2c-0.893-0.133-0.893-0.133-1.8-0.27-2.8-0.931-3.58-2.05-5.32-4.42-0.605-0.817-1.21-1.63-1.83-2.48-0.674-0.936-1.35-1.87-2.04-2.84-0.767-1.04-1.53-2.08-2.32-3.15-4.67-6.37-9.1-12.9-13.4-19.5-0.67-1.02-0.67-1.02-1.35-2.07-1.07-1.7-2.02-3.47-2.96-5.24 0.33-0.99 0.66-1.98 1-3z"/>
<path transform="translate(179,520)" d="m0 0c8.46 2.91 16.6 6.38 24.8 10.1 2.35 1.05 4.7 2.11 7.05 3.16 1.08 0.488 2.16 0.977 3.28 1.48 2.37 1.05 4.75 2.04 7.16 3 2.76 1.3 2.76 1.3 4.2 3.98 0.186 0.763 0.371 1.53 0.562 2.31-2.51 0.972-4.34 1.22-6.91 0.352-1.52-0.693-3.04-1.41-4.55-2.13-2.54-1.22-5.11-2.29-7.73-3.34-6.19-2.57-12.3-5.27-18.4-8-0.985-0.432-1.97-0.864-2.99-1.31-0.925-0.416-1.85-0.832-2.8-1.26-0.835-0.371-1.67-0.743-2.53-1.13-2.06-1.18-2.06-1.18-4.06-4.18 0.99-0.99 1.98-1.98 3-3z"/>
<path transform="translate(1414 995)" d="m0 0c0.784 0.264 1.57 0.527 2.37 0.799 0.827 0.275 1.65 0.551 2.51 0.834 1.73 0.581 3.47 1.17 5.2 1.76 2.65 0.897 5.31 1.77 7.98 2.63 1.69 0.57 3.38 1.14 5.07 1.71 0.796 0.255 1.59 0.511 2.41 0.774 5.47 1.91 5.47 1.91 7.33 5.23 0.16 0.757 0.321 1.51 0.486 2.29-1 1-1 1-3.62 1.25-3.29-0.243-5.46-1.08-8.43-2.41-3.28-1.42-6.64-2.59-10-3.78-0.735-0.26-1.47-0.52-2.23-0.788-5.83-2.03-11.7-3.75-17.7-5.32-3.23-1.01-6.07-2.37-9.05-3.96 0.33-0.99 0.66-1.98 1-3 4.84-2.42 11.8 0.382 16.6 1.97z"/>
<path transform="translate(603,1396)" d="m0 0h3c1.13 3.34 0.863 5.25-0.25 8.56-1.14 3.53-2.19 7.04-3.12 10.6-1.57 5.84-3.48 11.5-5.43 17.3-0.996 2.94-1.95 5.89-2.89 8.86-1.31 3.69-1.31 3.69-3.31 5.69-2.62 0.125-2.62 0.125-5 0-1.78-5.34 1.85-10.6 4.2-15.5 3.37-7.01 5.54-14.1 7.49-21.6 0.581-2.22 1.17-4.44 1.76-6.66 0.251-0.967 0.502-1.93 0.76-2.93 0.79-2.35 0.79-2.35 2.79-4.35z"/>
<path transform="translate(398,249)" d="m0 0c4.36 0.484 6.13 1.74 9 5 0.425 0.402 0.851 0.804 1.29 1.22 2.53 2.63 4.72 5.53 6.96 8.41 0.983 1.26 1.97 2.53 2.95 3.79 0.477 0.614 0.955 1.23 1.45 1.86 1.17 1.48 2.36 2.94 3.56 4.4 4.32 5.27 6.79 9.32 6.79 16.3-7.76-1.88-12-9.93-16.1-16.2-1.65-2.33-3.35-4.49-5.18-6.68-0.586-0.702-1.17-1.4-1.78-2.13-1.19-1.41-2.38-2.81-3.59-4.2-3.25-3.86-5.17-6.52-5.41-11.8z"/>
<path transform="translate(1267,1220)" d="m0 0c6.5 0.162 9.56 3.76 14 8 1.93 1.8 3.87 3.59 5.81 5.38 0.507 0.469 1.01 0.938 1.54 1.42 4.26 3.92 8.72 7.56 13.3 11.1 2.51 2.19 4.52 4.3 6.38 7.07-0.33 0.99-0.66 1.98-1 3-3.96-0.614-6.55-2.6-9.75-4.94-0.985-0.71-1.97-1.42-2.98-2.15-0.748-0.63-1.5-1.26-2.27-1.91v-2c-0.562-0.244-1.12-0.487-1.7-0.738-2.74-1.5-4.75-3.33-7.05-5.45-3.17-2.91-6.35-5.77-9.62-8.56-2.9-2.52-5.35-5.13-7.62-8.25 0.33-0.66 0.66-1.32 1-2z"/>
<path transform="translate(1313 1170)" d="m0 0c3.59 1.47 6.5 3.4 9.58 5.71 1.22 0.898 2.45 1.8 3.67 2.69 0.645 0.475 1.29 0.949 1.96 1.44 2.17 1.58 4.37 3.12 6.58 4.65 0.756 0.526 1.51 1.05 2.29 1.59 1.47 1.02 2.94 2.04 4.42 3.05 3.95 2.76 7.66 5.48 10.8 9.2v4c-4.05-0.549-6.35-1.7-9.56-4.19-6.28-4.73-12.7-9.23-19.2-13.7-2.43-1.69-4.84-3.39-7.26-5.1-0.79-0.548-1.58-1.1-2.39-1.66-0.733-0.522-1.47-1.04-2.22-1.58-0.654-0.46-1.31-0.92-1.98-1.39-0.464-0.45-0.927-0.9-1.41-1.36v-3c2-1 2-1 4.73-0.336z"/>
<path transform="translate(1375,1054)" d="m0 0c5.45 0.393 9.8 2.03 14.6 4.44 1.48 0.725 2.96 1.45 4.45 2.17 0.787 0.386 1.57 0.772 2.38 1.17 2.74 1.31 5.51 2.56 8.29 3.8 0.957 0.434 1.91 0.868 2.9 1.31 1.88 0.853 3.77 1.69 5.67 2.52 1.29 0.592 1.29 0.592 2.6 1.2 0.766 0.342 1.53 0.684 2.32 1.04 1.77 1.36 1.77 1.36 2.53 4.01 0.0806 0.776 0.161 1.55 0.244 2.35-5.92 0.474-8.19-0.725-13-4-2.41-1.14-4.79-2.22-7.25-3.25-1.4-0.6-2.8-1.2-4.2-1.8-0.733-0.313-1.47-0.626-2.22-0.948-4.13-1.78-8.22-3.61-12.3-5.44-1.54-0.686-3.08-1.37-4.62-2.06-1.11-0.496-2.23-0.993-3.38-1.5 0-4 0-4 1-5z"/>
<path transform="translate(249,398)" d="m0 0c4.81 0.51 8.13 2.81 12 5.5 0.654 0.446 1.31 0.893 1.98 1.35 2.01 1.37 4.01 2.76 6.02 4.15 1.2 0.818 2.39 1.64 3.59 2.45 3.15 2.16 6.28 4.35 9.41 6.55 0.83 0.567 1.66 1.13 2.52 1.72 3.81 2.68 6.36 4.51 7.48 9.28-1.69 0.711-1.69 0.711-4 1-2.34-1.34-2.34-1.34-4.94-3.38-8.08-6.17-16.4-12-25-17.4-3.98-2.5-7.56-5.12-11.1-8.25 0.66-0.99 1.32-1.98 2-3z"/>
<path transform="translate(1196,247)" d="m0 0c2.06 0.438 2.06 0.438 4 1-0.819 6.96-4.1 11.3-8 17-0.384 0.563-0.768 1.13-1.16 1.71-14.5 21.2-14.5 21.2-20.1 23.1-0.575 0.0786-1.15 0.157-1.74 0.238-0.658-1.77-0.658-1.77-1-4 0.985-1.8 0.985-1.8 2.54-3.61 0.563-0.673 1.13-1.35 1.71-2.04 0.601-0.694 1.2-1.39 1.82-2.1 1.16-1.37 2.32-2.74 3.47-4.11 0.578-0.684 1.16-1.37 1.75-2.07 4.59-5.54 8.57-11.2 12-17.5 3.59-6.47 3.59-6.47 4.69-7.56z"/>
<path transform="translate(1254,292)" d="m0 0c0.66 1.32 1.32 2.64 2 4-4.59 5.99-9.36 11.5-14.8 16.7-2.3 2.37-4.28 4.86-6.29 7.48-3.42 4.4-7.09 8.01-11.9 10.8h-2c-0.495-1.49-0.495-1.49-1-3 2.54-4.51 5.75-7.97 9.44-11.6 0.927-0.909 1.85-1.82 2.81-2.75 1.76-1.71 3.53-3.41 5.31-5.1 2.76-2.92 4.93-5.99 7.13-9.33 4.8-7.25 4.8-7.25 9.31-7.25z"/>
<path transform="translate(288,1169)" d="m0 0c2.22 0.887 2.22 0.887 4 2-1.51 4.53-5.19 6.46-9 8.94-4.69 3.12-9.33 6.27-13.9 9.64-0.797 0.591-1.59 1.18-2.41 1.79-1.55 1.15-3.08 2.31-4.62 3.48-4.02 2.98-6.95 4.88-12.1 5.15-0.33-0.99-0.66-1.98-1-3 5.01-4.72 10.2-8.5 16.1-12.1 3.16-2.04 6.13-4.24 9.12-6.52 9.32-7.05 9.32-7.05 13.8-9.38z"/>
<path transform="translate(1304,343)" d="m0 0 3 3c-1.24 3.72-2.69 4.59-5.75 7-0.995 0.794-1.99 1.59-3.02 2.41-0.529 0.422-1.06 0.843-1.6 1.28-2.75 2.22-5.44 4.52-8.13 6.82-4.2 3.56-8.39 7.11-12.6 10.6-0.869 0.724-1.74 1.45-2.63 2.2-2.24 1.68-2.24 1.68-5.24 2.68-0.652-1.79-0.652-1.79-1-4 3.83-7.41 12.8-12.8 19.2-17.9 2.89-2.3 5.7-4.66 8.45-7.12 2.96-2.64 6.01-4.83 9.38-6.94z"/>
<path transform="translate(381,1268)" d="m0 0c-0.125 1.69-0.125 1.69-1 4-1.41 1.21-2.82 2.41-4.28 3.55-3.82 3.22-6.88 7.25-10.1 11.1-13 15.5-13 15.5-18.6 19.4h-2c-0.495-1.48-0.495-1.48-1-3 3.24-5.98 8.63-11 13.3-15.8 5.3-5.56 10.3-11.2 15.1-17.2 2.88-3.42 4.51-2.92 8.64-1.94z"/>
<path transform="translate(334,1220)" d="m0 0c-0.459 4.61-1.94 6.31-5.44 9.25-0.908 0.78-1.81 1.56-2.75 2.36-0.928 0.788-1.86 1.58-2.81 2.39-1.65 1.47-3.3 2.95-4.94 4.44-0.821 0.733-1.64 1.47-2.49 2.22-1.81 1.65-3.6 3.33-5.37 5.02-5.19 4.93-9.23 8.47-16.2 10.3 0.512-4.48 1.86-6.78 5-10 2.24-1.58 4.53-3.06 6.83-4.54 3.34-2.26 5.91-5.11 8.64-8.05 12.9-13.4 12.9-13.4 19.5-13.4z"/>
<path transform="translate(541,1375)" d="m0 0c1.32 0.66 2.64 1.32 4 2-0.587 3.47-1.48 6.33-3 9.5-1.8 3.83-3.51 7.69-5.12 11.6-0.381 0.917-0.762 1.83-1.15 2.78-0.759 1.83-1.51 3.67-2.25 5.5-2.45 5.88-5.41 10.7-9.47 15.6-1.32-0.33-2.64-0.66-4-1 1.49-4.95 3.58-9.36 5.94-13.9 4.16-8.1 7.64-16.4 10.9-24.9 1.13-2.87 1.96-4.96 4.16-7.17z"/>
<path transform="translate(1350 400)" d="m0 0c0.598 0.351 1.2 0.701 1.81 1.06-1.26 3.79-2.51 4.21-5.88 6.25-1.5 0.924-1.5 0.924-3.04 1.87-1.02 0.621-2.04 1.24-3.09 1.88-1.77 1.12-3.54 2.25-5.31 3.38-0.896 0.567-1.79 1.13-2.71 1.72-2.21 1.42-4.41 2.86-6.6 4.31-0.622 0.409-1.24 0.819-1.88 1.24-1.21 0.8-2.42 1.61-3.63 2.42-3.26 2.14-5.97 3.48-9.86 3.93-0.33-1.32-0.66-2.64-1-4 0.783-0.504 0.783-0.504 1.58-1.02 9.93-6.4 19.8-12.8 29.5-19.6 6.86-4.8 6.86-4.8 10.1-3.4z"/>
<path transform="translate(429,1309)" d="m0 0c0.99 1.32 1.98 2.64 3 4-0.617 0.799-1.23 1.6-1.87 2.42-4.29 5.56-8.56 11.1-12.8 16.8-10.2 13.6-10.2 13.6-14.4 17.8-2.12-0.375-2.12-0.375-4-1 4.75-8.86 10.3-16.5 16.6-24.3 2.95-3.72 5.71-7.58 8.5-11.4 1.88-2.33 1.88-2.33 4.88-4.33z"/>
<path transform="translate(703,279)" d="m0 0h3v2h3v2h3c-0.33 1.32-0.66 2.64-1 4-0.763-0.639-1.53-1.28-2.31-1.94-2.57-2.2-2.57-2.2-5.69-3.06v-3z" fill="#FCFEFE"/>
</svg>
